M48
; DRILL file {KiCad (7.0.0)} date Sun Apr  2 16:17:45 2023
; FORMAT={-:-/ absolute / inch / decimal}
; #@! TF.CreationDate,2023-04-02T16:17:45+02:00
; #@! TF.GenerationSoftware,Kicad,Pcbnew,(7.0.0)
; #@! TF.FileFunction,Plated,1,2,PTH
FMAT,2
INCH
; #@! TA.AperFunction,Plated,PTH,ComponentDrill
T1C0.0315
; #@! TA.AperFunction,Plated,PTH,ComponentDrill
T2C0.0394
; #@! TA.AperFunction,Plated,PTH,ComponentDrill
T3C0.0402
; #@! TA.AperFunction,Plated,PTH,ComponentDrill
T4C0.0512
%
G90
G05
T1
X3.857Y-4.5909
X3.857Y-5.1909
X3.8625Y-3.0441
X3.8625Y-3.6441
X3.8625Y-3.803
X3.8625Y-4.403
X3.9Y-2.7
X3.9Y-2.8
X3.9Y-2.9
X3.9829Y-3.0418
X3.9829Y-3.6418
X3.9829Y-3.803
X3.9829Y-4.403
X3.9829Y-4.5909
X3.9829Y-5.1909
X4.2175Y-4.7124
X4.2175Y-5.1758
X4.2201Y-4.8643
X4.2201Y-5.0213
X4.3838Y-1.6957
X4.3838Y-2.2957
X4.8175Y-4.7124
X4.8175Y-5.1758
X4.8201Y-4.8643
X4.8201Y-5.0213
T2
X3.9207Y-2.2278
X4.1805Y-2.2278
T3
X4.1579Y-2.5614
X4.1579Y-2.6614
X4.1579Y-2.7614
X4.1579Y-2.8614
X4.1579Y-2.9614
X4.1579Y-3.0614
X4.1579Y-3.1614
X4.1579Y-3.2614
X4.1579Y-3.3614
X4.1579Y-3.4614
X4.1579Y-3.5614
X4.1579Y-3.6614
X4.1579Y-3.7614
X4.1579Y-3.8614
X4.1579Y-3.9614
X4.1579Y-4.0614
X4.1579Y-4.1614
X4.1579Y-4.2614
X4.1579Y-4.3614
X4.1579Y-4.4614
X4.8579Y-2.5614
X4.8579Y-2.6614
X4.8579Y-2.7614
X4.8579Y-2.8614
X4.8579Y-2.9614
X4.8579Y-3.0614
X4.8579Y-3.1614
X4.8579Y-3.2614
X4.8579Y-3.3614
X4.8579Y-3.4614
X4.8579Y-3.5614
X4.8579Y-3.6614
X4.8579Y-3.7614
X4.8579Y-3.8614
X4.8579Y-3.9614
X4.8579Y-4.0614
X4.8579Y-4.1614
X4.8579Y-4.2614
X4.8579Y-4.3614
X4.8579Y-4.4614
T4
X3.4379Y-1.7175
X3.5Y-2.1
X3.5Y-2.2969
X3.5Y-2.4937
X3.5Y-2.8
X3.5Y-2.9969
X3.5Y-3.3
X3.5Y-3.4969
X3.5Y-3.6937
X3.5Y-3.8906
X3.5Y-4.2
X3.5Y-4.3969
X3.5Y-4.5937
X3.5Y-4.7906
X3.6348Y-1.7175
X3.8316Y-1.7175
X4.0285Y-1.7175
X4.7605Y-1.7175
X4.9573Y-1.7175
X5.1542Y-1.7175
X5.3Y-2.3
X5.3Y-2.4969
X5.3Y-2.6937
X5.3Y-2.8906
X5.3Y-3.0874
X5.3009Y-3.4317
X5.3009Y-3.6286
X5.3015Y-3.8345
X5.3015Y-4.0314
X5.3015Y-4.2282
X5.3015Y-4.4251
X5.3015Y-4.6219
X5.3015Y-4.8188
X5.351Y-1.7175
T0
M30
