%TF.GenerationSoftware,KiCad,Pcbnew,(7.0.0)*%
%TF.CreationDate,2023-04-02T16:17:38+02:00*%
%TF.ProjectId,W5100S-EVB-Pico-Breakout,57353130-3053-42d4-9556-422d5069636f,rev?*%
%TF.SameCoordinates,Original*%
%TF.FileFunction,Soldermask,Bot*%
%TF.FilePolarity,Negative*%
%FSLAX46Y46*%
G04 Gerber Fmt 4.6, Leading zero omitted, Abs format (unit mm)*
G04 Created by KiCad (PCBNEW (7.0.0)) date 2023-04-02 16:17:38*
%MOMM*%
%LPD*%
G01*
G04 APERTURE LIST*
%ADD10C,1.600000*%
%ADD11O,1.600000X1.600000*%
%ADD12R,2.600000X2.600000*%
%ADD13C,2.600000*%
%ADD14O,1.700000X1.700000*%
%ADD15R,1.700000X1.700000*%
%ADD16R,2.000000X2.000000*%
%ADD17C,2.000000*%
%ADD18R,1.500000X1.500000*%
%ADD19C,1.500000*%
G04 APERTURE END LIST*
D10*
%TO.C,R2*%
X98106500Y-77318900D03*
D11*
X98106499Y-92558899D03*
%TD*%
D12*
%TO.C,Reedswitch_3_en_1*%
X135915599Y-43625499D03*
D13*
X130915600Y-43625500D03*
X125915600Y-43625500D03*
X120915600Y-43625500D03*
%TD*%
D10*
%TO.C,R5*%
X98106500Y-111836600D03*
D11*
X98106499Y-96596599D03*
%TD*%
D14*
%TO.C,U1*%
X105611099Y-65058899D03*
X105611099Y-67598899D03*
D15*
X105611099Y-70138899D03*
D14*
X105611099Y-72678899D03*
X105611099Y-75218899D03*
X105611099Y-77758899D03*
X105611099Y-80298899D03*
D15*
X105611099Y-82838899D03*
D14*
X105611099Y-85378899D03*
X105611099Y-87918899D03*
X105611099Y-90458899D03*
X105611099Y-92998899D03*
D15*
X105611099Y-95538899D03*
D14*
X105611099Y-98078899D03*
X105611099Y-100618899D03*
X105611099Y-103158899D03*
X105611099Y-105698899D03*
D15*
X105611099Y-108238899D03*
D14*
X105611099Y-110778899D03*
X105611099Y-113318899D03*
X123391099Y-113318899D03*
X123391099Y-110778899D03*
D15*
X123391099Y-108238899D03*
D14*
X123391099Y-105698899D03*
X123391099Y-103158899D03*
X123391099Y-100618899D03*
X123391099Y-98078899D03*
D15*
X123391099Y-95538899D03*
D14*
X123391099Y-92998899D03*
X123391099Y-90458899D03*
X123391099Y-87918899D03*
X123391099Y-85378899D03*
D15*
X123391099Y-82838899D03*
D14*
X123391099Y-80298899D03*
X123391099Y-77758899D03*
X123391099Y-75218899D03*
X123391099Y-72678899D03*
D15*
X123391099Y-70138899D03*
D14*
X123391099Y-67598899D03*
X123391099Y-65058899D03*
%TD*%
D10*
%TO.C,R9*%
X97967200Y-131848400D03*
D11*
X97967199Y-116608399D03*
%TD*%
D10*
%TO.C,R3*%
X101166300Y-77260600D03*
D11*
X101166299Y-92500599D03*
%TD*%
D16*
%TO.C,BZ1*%
X99584599Y-56585489D03*
D17*
X106184600Y-56585490D03*
%TD*%
D12*
%TO.C,Led4*%
X134642699Y-92165199D03*
D13*
X134642700Y-87165200D03*
%TD*%
D18*
%TO.C,Q1*%
X99059999Y-68579999D03*
D19*
X99060000Y-71120000D03*
X99060000Y-73660000D03*
%TD*%
D12*
%TO.C,PIR1*%
X88899999Y-83819999D03*
D13*
X88900000Y-88820000D03*
X88900000Y-93820000D03*
X88900000Y-98820000D03*
%TD*%
D12*
%TO.C,NPM_Sensor1*%
X88899999Y-53339999D03*
D13*
X88900000Y-58340000D03*
X88900000Y-63340000D03*
%TD*%
D10*
%TO.C,R1*%
X101166300Y-96596600D03*
D11*
X101166299Y-111836599D03*
%TD*%
D10*
%TO.C,R4*%
X111349100Y-58311200D03*
D11*
X111349099Y-43071199D03*
%TD*%
D12*
%TO.C,Temperatuur_BME1*%
X88899999Y-106679999D03*
D13*
X88900000Y-111680000D03*
X88900000Y-116680000D03*
X88900000Y-121680000D03*
%TD*%
D10*
%TO.C,R10*%
X101166300Y-131848400D03*
D11*
X101166299Y-116608399D03*
%TD*%
D10*
%TO.C,R6*%
X122364800Y-131466300D03*
D11*
X107124799Y-131466299D03*
%TD*%
D12*
%TO.C,12V_voeding_in1*%
X88899999Y-71119999D03*
D13*
X88900000Y-76120000D03*
%TD*%
D12*
%TO.C,J1*%
X134658599Y-122396699D03*
D13*
X134658600Y-117396700D03*
X134658600Y-112396700D03*
X134658600Y-107396700D03*
X134658600Y-102396700D03*
X134658600Y-97396700D03*
%TD*%
D12*
%TO.C,NFC_Reader1*%
X134619999Y-78419999D03*
D13*
X134620000Y-73420000D03*
X134620000Y-68420000D03*
X134620000Y-63420000D03*
X134620000Y-58420000D03*
%TD*%
D10*
%TO.C,R11*%
X122364800Y-119693700D03*
D11*
X107124799Y-119693699D03*
%TD*%
D10*
%TO.C,R8*%
X122430200Y-123552500D03*
D11*
X107190199Y-123552499D03*
%TD*%
D10*
%TO.C,R7*%
X122430200Y-127542100D03*
D11*
X107190199Y-127542099D03*
%TD*%
D12*
%TO.C,Reedswitch_1_en_1*%
X102323899Y-43625499D03*
D13*
X97323900Y-43625500D03*
X92323900Y-43625500D03*
X87323900Y-43625500D03*
%TD*%
M02*
