%TF.GenerationSoftware,KiCad,Pcbnew,(7.0.0)*%
%TF.CreationDate,2023-04-02T16:17:38+02:00*%
%TF.ProjectId,W5100S-EVB-Pico-Breakout,57353130-3053-42d4-9556-422d5069636f,rev?*%
%TF.SameCoordinates,Original*%
%TF.FileFunction,Legend,Bot*%
%TF.FilePolarity,Positive*%
%FSLAX46Y46*%
G04 Gerber Fmt 4.6, Leading zero omitted, Abs format (unit mm)*
G04 Created by KiCad (PCBNEW (7.0.0)) date 2023-04-02 16:17:38*
%MOMM*%
%LPD*%
G01*
G04 APERTURE LIST*
%ADD10C,0.125000*%
%ADD11C,0.150000*%
G04 APERTURE END LIST*
D10*
X120227442Y-65705081D02*
X119656014Y-65705081D01*
X119941728Y-66705081D02*
X119941728Y-65705081D01*
X119322680Y-66181272D02*
X118989347Y-66181272D01*
X118846490Y-66705081D02*
X119322680Y-66705081D01*
X119322680Y-66705081D02*
X119322680Y-65705081D01*
X119322680Y-65705081D02*
X118846490Y-65705081D01*
X118417918Y-66705081D02*
X118417918Y-65705081D01*
X118417918Y-65705081D02*
X118084585Y-66419367D01*
X118084585Y-66419367D02*
X117751252Y-65705081D01*
X117751252Y-65705081D02*
X117751252Y-66705081D01*
X117275061Y-66705081D02*
X117275061Y-65705081D01*
X117275061Y-65705081D02*
X116894109Y-65705081D01*
X116894109Y-65705081D02*
X116798871Y-65752701D01*
X116798871Y-65752701D02*
X116751252Y-65800320D01*
X116751252Y-65800320D02*
X116703633Y-65895558D01*
X116703633Y-65895558D02*
X116703633Y-66038415D01*
X116703633Y-66038415D02*
X116751252Y-66133653D01*
X116751252Y-66133653D02*
X116798871Y-66181272D01*
X116798871Y-66181272D02*
X116894109Y-66228891D01*
X116894109Y-66228891D02*
X117275061Y-66228891D01*
X116275061Y-66609843D02*
X116227442Y-66657462D01*
X116227442Y-66657462D02*
X116275061Y-66705081D01*
X116275061Y-66705081D02*
X116322680Y-66657462D01*
X116322680Y-66657462D02*
X116275061Y-66609843D01*
X116275061Y-66609843D02*
X116275061Y-66705081D01*
X116275061Y-66086034D02*
X116227442Y-66133653D01*
X116227442Y-66133653D02*
X116275061Y-66181272D01*
X116275061Y-66181272D02*
X116322680Y-66133653D01*
X116322680Y-66133653D02*
X116275061Y-66086034D01*
X116275061Y-66086034D02*
X116275061Y-66181272D01*
X120132204Y-68277462D02*
X119989347Y-68325081D01*
X119989347Y-68325081D02*
X119751252Y-68325081D01*
X119751252Y-68325081D02*
X119656014Y-68277462D01*
X119656014Y-68277462D02*
X119608395Y-68229843D01*
X119608395Y-68229843D02*
X119560776Y-68134605D01*
X119560776Y-68134605D02*
X119560776Y-68039367D01*
X119560776Y-68039367D02*
X119608395Y-67944129D01*
X119608395Y-67944129D02*
X119656014Y-67896510D01*
X119656014Y-67896510D02*
X119751252Y-67848891D01*
X119751252Y-67848891D02*
X119941728Y-67801272D01*
X119941728Y-67801272D02*
X120036966Y-67753653D01*
X120036966Y-67753653D02*
X120084585Y-67706034D01*
X120084585Y-67706034D02*
X120132204Y-67610796D01*
X120132204Y-67610796D02*
X120132204Y-67515558D01*
X120132204Y-67515558D02*
X120084585Y-67420320D01*
X120084585Y-67420320D02*
X120036966Y-67372701D01*
X120036966Y-67372701D02*
X119941728Y-67325081D01*
X119941728Y-67325081D02*
X119703633Y-67325081D01*
X119703633Y-67325081D02*
X119560776Y-67372701D01*
X119132204Y-68325081D02*
X119132204Y-67325081D01*
X119132204Y-67325081D02*
X118894109Y-67325081D01*
X118894109Y-67325081D02*
X118751252Y-67372701D01*
X118751252Y-67372701D02*
X118656014Y-67467939D01*
X118656014Y-67467939D02*
X118608395Y-67563177D01*
X118608395Y-67563177D02*
X118560776Y-67753653D01*
X118560776Y-67753653D02*
X118560776Y-67896510D01*
X118560776Y-67896510D02*
X118608395Y-68086986D01*
X118608395Y-68086986D02*
X118656014Y-68182224D01*
X118656014Y-68182224D02*
X118751252Y-68277462D01*
X118751252Y-68277462D02*
X118894109Y-68325081D01*
X118894109Y-68325081D02*
X119132204Y-68325081D01*
X118179823Y-68039367D02*
X117703633Y-68039367D01*
X118275061Y-68325081D02*
X117941728Y-67325081D01*
X117941728Y-67325081D02*
X117608395Y-68325081D01*
X117275061Y-68229843D02*
X117227442Y-68277462D01*
X117227442Y-68277462D02*
X117275061Y-68325081D01*
X117275061Y-68325081D02*
X117322680Y-68277462D01*
X117322680Y-68277462D02*
X117275061Y-68229843D01*
X117275061Y-68229843D02*
X117275061Y-68325081D01*
X117275061Y-67706034D02*
X117227442Y-67753653D01*
X117227442Y-67753653D02*
X117275061Y-67801272D01*
X117275061Y-67801272D02*
X117322680Y-67753653D01*
X117322680Y-67753653D02*
X117275061Y-67706034D01*
X117275061Y-67706034D02*
X117275061Y-67801272D01*
X115675062Y-67372701D02*
X115770300Y-67325081D01*
X115770300Y-67325081D02*
X115913157Y-67325081D01*
X115913157Y-67325081D02*
X116056014Y-67372701D01*
X116056014Y-67372701D02*
X116151252Y-67467939D01*
X116151252Y-67467939D02*
X116198871Y-67563177D01*
X116198871Y-67563177D02*
X116246490Y-67753653D01*
X116246490Y-67753653D02*
X116246490Y-67896510D01*
X116246490Y-67896510D02*
X116198871Y-68086986D01*
X116198871Y-68086986D02*
X116151252Y-68182224D01*
X116151252Y-68182224D02*
X116056014Y-68277462D01*
X116056014Y-68277462D02*
X115913157Y-68325081D01*
X115913157Y-68325081D02*
X115817919Y-68325081D01*
X115817919Y-68325081D02*
X115675062Y-68277462D01*
X115675062Y-68277462D02*
X115627443Y-68229843D01*
X115627443Y-68229843D02*
X115627443Y-67896510D01*
X115627443Y-67896510D02*
X115817919Y-67896510D01*
X115198871Y-68325081D02*
X115198871Y-67325081D01*
X115198871Y-67325081D02*
X114817919Y-67325081D01*
X114817919Y-67325081D02*
X114722681Y-67372701D01*
X114722681Y-67372701D02*
X114675062Y-67420320D01*
X114675062Y-67420320D02*
X114627443Y-67515558D01*
X114627443Y-67515558D02*
X114627443Y-67658415D01*
X114627443Y-67658415D02*
X114675062Y-67753653D01*
X114675062Y-67753653D02*
X114722681Y-67801272D01*
X114722681Y-67801272D02*
X114817919Y-67848891D01*
X114817919Y-67848891D02*
X115198871Y-67848891D01*
X114198871Y-68325081D02*
X114198871Y-67325081D01*
X113532205Y-67325081D02*
X113341729Y-67325081D01*
X113341729Y-67325081D02*
X113246491Y-67372701D01*
X113246491Y-67372701D02*
X113151253Y-67467939D01*
X113151253Y-67467939D02*
X113103634Y-67658415D01*
X113103634Y-67658415D02*
X113103634Y-67991748D01*
X113103634Y-67991748D02*
X113151253Y-68182224D01*
X113151253Y-68182224D02*
X113246491Y-68277462D01*
X113246491Y-68277462D02*
X113341729Y-68325081D01*
X113341729Y-68325081D02*
X113532205Y-68325081D01*
X113532205Y-68325081D02*
X113627443Y-68277462D01*
X113627443Y-68277462D02*
X113722681Y-68182224D01*
X113722681Y-68182224D02*
X113770300Y-67991748D01*
X113770300Y-67991748D02*
X113770300Y-67658415D01*
X113770300Y-67658415D02*
X113722681Y-67467939D01*
X113722681Y-67467939D02*
X113627443Y-67372701D01*
X113627443Y-67372701D02*
X113532205Y-67325081D01*
X112484586Y-67325081D02*
X112389348Y-67325081D01*
X112389348Y-67325081D02*
X112294110Y-67372701D01*
X112294110Y-67372701D02*
X112246491Y-67420320D01*
X112246491Y-67420320D02*
X112198872Y-67515558D01*
X112198872Y-67515558D02*
X112151253Y-67706034D01*
X112151253Y-67706034D02*
X112151253Y-67944129D01*
X112151253Y-67944129D02*
X112198872Y-68134605D01*
X112198872Y-68134605D02*
X112246491Y-68229843D01*
X112246491Y-68229843D02*
X112294110Y-68277462D01*
X112294110Y-68277462D02*
X112389348Y-68325081D01*
X112389348Y-68325081D02*
X112484586Y-68325081D01*
X112484586Y-68325081D02*
X112579824Y-68277462D01*
X112579824Y-68277462D02*
X112627443Y-68229843D01*
X112627443Y-68229843D02*
X112675062Y-68134605D01*
X112675062Y-68134605D02*
X112722681Y-67944129D01*
X112722681Y-67944129D02*
X112722681Y-67706034D01*
X112722681Y-67706034D02*
X112675062Y-67515558D01*
X112675062Y-67515558D02*
X112627443Y-67420320D01*
X112627443Y-67420320D02*
X112579824Y-67372701D01*
X112579824Y-67372701D02*
X112484586Y-67325081D01*
X120132204Y-69897462D02*
X119989347Y-69945081D01*
X119989347Y-69945081D02*
X119751252Y-69945081D01*
X119751252Y-69945081D02*
X119656014Y-69897462D01*
X119656014Y-69897462D02*
X119608395Y-69849843D01*
X119608395Y-69849843D02*
X119560776Y-69754605D01*
X119560776Y-69754605D02*
X119560776Y-69659367D01*
X119560776Y-69659367D02*
X119608395Y-69564129D01*
X119608395Y-69564129D02*
X119656014Y-69516510D01*
X119656014Y-69516510D02*
X119751252Y-69468891D01*
X119751252Y-69468891D02*
X119941728Y-69421272D01*
X119941728Y-69421272D02*
X120036966Y-69373653D01*
X120036966Y-69373653D02*
X120084585Y-69326034D01*
X120084585Y-69326034D02*
X120132204Y-69230796D01*
X120132204Y-69230796D02*
X120132204Y-69135558D01*
X120132204Y-69135558D02*
X120084585Y-69040320D01*
X120084585Y-69040320D02*
X120036966Y-68992701D01*
X120036966Y-68992701D02*
X119941728Y-68945081D01*
X119941728Y-68945081D02*
X119703633Y-68945081D01*
X119703633Y-68945081D02*
X119560776Y-68992701D01*
X118560776Y-69849843D02*
X118608395Y-69897462D01*
X118608395Y-69897462D02*
X118751252Y-69945081D01*
X118751252Y-69945081D02*
X118846490Y-69945081D01*
X118846490Y-69945081D02*
X118989347Y-69897462D01*
X118989347Y-69897462D02*
X119084585Y-69802224D01*
X119084585Y-69802224D02*
X119132204Y-69706986D01*
X119132204Y-69706986D02*
X119179823Y-69516510D01*
X119179823Y-69516510D02*
X119179823Y-69373653D01*
X119179823Y-69373653D02*
X119132204Y-69183177D01*
X119132204Y-69183177D02*
X119084585Y-69087939D01*
X119084585Y-69087939D02*
X118989347Y-68992701D01*
X118989347Y-68992701D02*
X118846490Y-68945081D01*
X118846490Y-68945081D02*
X118751252Y-68945081D01*
X118751252Y-68945081D02*
X118608395Y-68992701D01*
X118608395Y-68992701D02*
X118560776Y-69040320D01*
X117656014Y-69945081D02*
X118132204Y-69945081D01*
X118132204Y-69945081D02*
X118132204Y-68945081D01*
X117322680Y-69849843D02*
X117275061Y-69897462D01*
X117275061Y-69897462D02*
X117322680Y-69945081D01*
X117322680Y-69945081D02*
X117370299Y-69897462D01*
X117370299Y-69897462D02*
X117322680Y-69849843D01*
X117322680Y-69849843D02*
X117322680Y-69945081D01*
X117322680Y-69326034D02*
X117275061Y-69373653D01*
X117275061Y-69373653D02*
X117322680Y-69421272D01*
X117322680Y-69421272D02*
X117370299Y-69373653D01*
X117370299Y-69373653D02*
X117322680Y-69326034D01*
X117322680Y-69326034D02*
X117322680Y-69421272D01*
X115722681Y-68992701D02*
X115817919Y-68945081D01*
X115817919Y-68945081D02*
X115960776Y-68945081D01*
X115960776Y-68945081D02*
X116103633Y-68992701D01*
X116103633Y-68992701D02*
X116198871Y-69087939D01*
X116198871Y-69087939D02*
X116246490Y-69183177D01*
X116246490Y-69183177D02*
X116294109Y-69373653D01*
X116294109Y-69373653D02*
X116294109Y-69516510D01*
X116294109Y-69516510D02*
X116246490Y-69706986D01*
X116246490Y-69706986D02*
X116198871Y-69802224D01*
X116198871Y-69802224D02*
X116103633Y-69897462D01*
X116103633Y-69897462D02*
X115960776Y-69945081D01*
X115960776Y-69945081D02*
X115865538Y-69945081D01*
X115865538Y-69945081D02*
X115722681Y-69897462D01*
X115722681Y-69897462D02*
X115675062Y-69849843D01*
X115675062Y-69849843D02*
X115675062Y-69516510D01*
X115675062Y-69516510D02*
X115865538Y-69516510D01*
X115246490Y-69945081D02*
X115246490Y-68945081D01*
X115246490Y-68945081D02*
X114865538Y-68945081D01*
X114865538Y-68945081D02*
X114770300Y-68992701D01*
X114770300Y-68992701D02*
X114722681Y-69040320D01*
X114722681Y-69040320D02*
X114675062Y-69135558D01*
X114675062Y-69135558D02*
X114675062Y-69278415D01*
X114675062Y-69278415D02*
X114722681Y-69373653D01*
X114722681Y-69373653D02*
X114770300Y-69421272D01*
X114770300Y-69421272D02*
X114865538Y-69468891D01*
X114865538Y-69468891D02*
X115246490Y-69468891D01*
X114246490Y-69945081D02*
X114246490Y-68945081D01*
X113579824Y-68945081D02*
X113389348Y-68945081D01*
X113389348Y-68945081D02*
X113294110Y-68992701D01*
X113294110Y-68992701D02*
X113198872Y-69087939D01*
X113198872Y-69087939D02*
X113151253Y-69278415D01*
X113151253Y-69278415D02*
X113151253Y-69611748D01*
X113151253Y-69611748D02*
X113198872Y-69802224D01*
X113198872Y-69802224D02*
X113294110Y-69897462D01*
X113294110Y-69897462D02*
X113389348Y-69945081D01*
X113389348Y-69945081D02*
X113579824Y-69945081D01*
X113579824Y-69945081D02*
X113675062Y-69897462D01*
X113675062Y-69897462D02*
X113770300Y-69802224D01*
X113770300Y-69802224D02*
X113817919Y-69611748D01*
X113817919Y-69611748D02*
X113817919Y-69278415D01*
X113817919Y-69278415D02*
X113770300Y-69087939D01*
X113770300Y-69087939D02*
X113675062Y-68992701D01*
X113675062Y-68992701D02*
X113579824Y-68945081D01*
X112198872Y-69945081D02*
X112770300Y-69945081D01*
X112484586Y-69945081D02*
X112484586Y-68945081D01*
X112484586Y-68945081D02*
X112579824Y-69087939D01*
X112579824Y-69087939D02*
X112675062Y-69183177D01*
X112675062Y-69183177D02*
X112770300Y-69230796D01*
X119751252Y-72661272D02*
X119608395Y-72708891D01*
X119608395Y-72708891D02*
X119560776Y-72756510D01*
X119560776Y-72756510D02*
X119513157Y-72851748D01*
X119513157Y-72851748D02*
X119513157Y-72994605D01*
X119513157Y-72994605D02*
X119560776Y-73089843D01*
X119560776Y-73089843D02*
X119608395Y-73137462D01*
X119608395Y-73137462D02*
X119703633Y-73185081D01*
X119703633Y-73185081D02*
X120084585Y-73185081D01*
X120084585Y-73185081D02*
X120084585Y-72185081D01*
X120084585Y-72185081D02*
X119751252Y-72185081D01*
X119751252Y-72185081D02*
X119656014Y-72232701D01*
X119656014Y-72232701D02*
X119608395Y-72280320D01*
X119608395Y-72280320D02*
X119560776Y-72375558D01*
X119560776Y-72375558D02*
X119560776Y-72470796D01*
X119560776Y-72470796D02*
X119608395Y-72566034D01*
X119608395Y-72566034D02*
X119656014Y-72613653D01*
X119656014Y-72613653D02*
X119751252Y-72661272D01*
X119751252Y-72661272D02*
X120084585Y-72661272D01*
X119084585Y-72185081D02*
X119084585Y-72994605D01*
X119084585Y-72994605D02*
X119036966Y-73089843D01*
X119036966Y-73089843D02*
X118989347Y-73137462D01*
X118989347Y-73137462D02*
X118894109Y-73185081D01*
X118894109Y-73185081D02*
X118703633Y-73185081D01*
X118703633Y-73185081D02*
X118608395Y-73137462D01*
X118608395Y-73137462D02*
X118560776Y-73089843D01*
X118560776Y-73089843D02*
X118513157Y-72994605D01*
X118513157Y-72994605D02*
X118513157Y-72185081D01*
X118132204Y-72185081D02*
X117465538Y-72185081D01*
X117465538Y-72185081D02*
X118132204Y-73185081D01*
X118132204Y-73185081D02*
X117465538Y-73185081D01*
X117179823Y-72185081D02*
X116513157Y-72185081D01*
X116513157Y-72185081D02*
X117179823Y-73185081D01*
X117179823Y-73185081D02*
X116513157Y-73185081D01*
X116132204Y-72661272D02*
X115798871Y-72661272D01*
X115656014Y-73185081D02*
X116132204Y-73185081D01*
X116132204Y-73185081D02*
X116132204Y-72185081D01*
X116132204Y-72185081D02*
X115656014Y-72185081D01*
X114656014Y-73185081D02*
X114989347Y-72708891D01*
X115227442Y-73185081D02*
X115227442Y-72185081D01*
X115227442Y-72185081D02*
X114846490Y-72185081D01*
X114846490Y-72185081D02*
X114751252Y-72232701D01*
X114751252Y-72232701D02*
X114703633Y-72280320D01*
X114703633Y-72280320D02*
X114656014Y-72375558D01*
X114656014Y-72375558D02*
X114656014Y-72518415D01*
X114656014Y-72518415D02*
X114703633Y-72613653D01*
X114703633Y-72613653D02*
X114751252Y-72661272D01*
X114751252Y-72661272D02*
X114846490Y-72708891D01*
X114846490Y-72708891D02*
X115227442Y-72708891D01*
X114227442Y-73089843D02*
X114179823Y-73137462D01*
X114179823Y-73137462D02*
X114227442Y-73185081D01*
X114227442Y-73185081D02*
X114275061Y-73137462D01*
X114275061Y-73137462D02*
X114227442Y-73089843D01*
X114227442Y-73089843D02*
X114227442Y-73185081D01*
X114227442Y-72566034D02*
X114179823Y-72613653D01*
X114179823Y-72613653D02*
X114227442Y-72661272D01*
X114227442Y-72661272D02*
X114275061Y-72613653D01*
X114275061Y-72613653D02*
X114227442Y-72566034D01*
X114227442Y-72566034D02*
X114227442Y-72661272D01*
X112627443Y-72232701D02*
X112722681Y-72185081D01*
X112722681Y-72185081D02*
X112865538Y-72185081D01*
X112865538Y-72185081D02*
X113008395Y-72232701D01*
X113008395Y-72232701D02*
X113103633Y-72327939D01*
X113103633Y-72327939D02*
X113151252Y-72423177D01*
X113151252Y-72423177D02*
X113198871Y-72613653D01*
X113198871Y-72613653D02*
X113198871Y-72756510D01*
X113198871Y-72756510D02*
X113151252Y-72946986D01*
X113151252Y-72946986D02*
X113103633Y-73042224D01*
X113103633Y-73042224D02*
X113008395Y-73137462D01*
X113008395Y-73137462D02*
X112865538Y-73185081D01*
X112865538Y-73185081D02*
X112770300Y-73185081D01*
X112770300Y-73185081D02*
X112627443Y-73137462D01*
X112627443Y-73137462D02*
X112579824Y-73089843D01*
X112579824Y-73089843D02*
X112579824Y-72756510D01*
X112579824Y-72756510D02*
X112770300Y-72756510D01*
X112151252Y-73185081D02*
X112151252Y-72185081D01*
X112151252Y-72185081D02*
X111770300Y-72185081D01*
X111770300Y-72185081D02*
X111675062Y-72232701D01*
X111675062Y-72232701D02*
X111627443Y-72280320D01*
X111627443Y-72280320D02*
X111579824Y-72375558D01*
X111579824Y-72375558D02*
X111579824Y-72518415D01*
X111579824Y-72518415D02*
X111627443Y-72613653D01*
X111627443Y-72613653D02*
X111675062Y-72661272D01*
X111675062Y-72661272D02*
X111770300Y-72708891D01*
X111770300Y-72708891D02*
X112151252Y-72708891D01*
X111151252Y-73185081D02*
X111151252Y-72185081D01*
X110484586Y-72185081D02*
X110294110Y-72185081D01*
X110294110Y-72185081D02*
X110198872Y-72232701D01*
X110198872Y-72232701D02*
X110103634Y-72327939D01*
X110103634Y-72327939D02*
X110056015Y-72518415D01*
X110056015Y-72518415D02*
X110056015Y-72851748D01*
X110056015Y-72851748D02*
X110103634Y-73042224D01*
X110103634Y-73042224D02*
X110198872Y-73137462D01*
X110198872Y-73137462D02*
X110294110Y-73185081D01*
X110294110Y-73185081D02*
X110484586Y-73185081D01*
X110484586Y-73185081D02*
X110579824Y-73137462D01*
X110579824Y-73137462D02*
X110675062Y-73042224D01*
X110675062Y-73042224D02*
X110722681Y-72851748D01*
X110722681Y-72851748D02*
X110722681Y-72518415D01*
X110722681Y-72518415D02*
X110675062Y-72327939D01*
X110675062Y-72327939D02*
X110579824Y-72232701D01*
X110579824Y-72232701D02*
X110484586Y-72185081D01*
X109675062Y-72280320D02*
X109627443Y-72232701D01*
X109627443Y-72232701D02*
X109532205Y-72185081D01*
X109532205Y-72185081D02*
X109294110Y-72185081D01*
X109294110Y-72185081D02*
X109198872Y-72232701D01*
X109198872Y-72232701D02*
X109151253Y-72280320D01*
X109151253Y-72280320D02*
X109103634Y-72375558D01*
X109103634Y-72375558D02*
X109103634Y-72470796D01*
X109103634Y-72470796D02*
X109151253Y-72613653D01*
X109151253Y-72613653D02*
X109722681Y-73185081D01*
X109722681Y-73185081D02*
X109103634Y-73185081D01*
X119608395Y-76425081D02*
X120084585Y-76425081D01*
X120084585Y-76425081D02*
X120084585Y-75425081D01*
X119275061Y-75901272D02*
X118941728Y-75901272D01*
X118798871Y-76425081D02*
X119275061Y-76425081D01*
X119275061Y-76425081D02*
X119275061Y-75425081D01*
X119275061Y-75425081D02*
X118798871Y-75425081D01*
X118370299Y-76425081D02*
X118370299Y-75425081D01*
X118370299Y-75425081D02*
X118132204Y-75425081D01*
X118132204Y-75425081D02*
X117989347Y-75472701D01*
X117989347Y-75472701D02*
X117894109Y-75567939D01*
X117894109Y-75567939D02*
X117846490Y-75663177D01*
X117846490Y-75663177D02*
X117798871Y-75853653D01*
X117798871Y-75853653D02*
X117798871Y-75996510D01*
X117798871Y-75996510D02*
X117846490Y-76186986D01*
X117846490Y-76186986D02*
X117894109Y-76282224D01*
X117894109Y-76282224D02*
X117989347Y-76377462D01*
X117989347Y-76377462D02*
X118132204Y-76425081D01*
X118132204Y-76425081D02*
X118370299Y-76425081D01*
X116846490Y-76425081D02*
X117417918Y-76425081D01*
X117132204Y-76425081D02*
X117132204Y-75425081D01*
X117132204Y-75425081D02*
X117227442Y-75567939D01*
X117227442Y-75567939D02*
X117322680Y-75663177D01*
X117322680Y-75663177D02*
X117417918Y-75710796D01*
X116417918Y-76329843D02*
X116370299Y-76377462D01*
X116370299Y-76377462D02*
X116417918Y-76425081D01*
X116417918Y-76425081D02*
X116465537Y-76377462D01*
X116465537Y-76377462D02*
X116417918Y-76329843D01*
X116417918Y-76329843D02*
X116417918Y-76425081D01*
X116417918Y-75806034D02*
X116370299Y-75853653D01*
X116370299Y-75853653D02*
X116417918Y-75901272D01*
X116417918Y-75901272D02*
X116465537Y-75853653D01*
X116465537Y-75853653D02*
X116417918Y-75806034D01*
X116417918Y-75806034D02*
X116417918Y-75901272D01*
X114817919Y-75472701D02*
X114913157Y-75425081D01*
X114913157Y-75425081D02*
X115056014Y-75425081D01*
X115056014Y-75425081D02*
X115198871Y-75472701D01*
X115198871Y-75472701D02*
X115294109Y-75567939D01*
X115294109Y-75567939D02*
X115341728Y-75663177D01*
X115341728Y-75663177D02*
X115389347Y-75853653D01*
X115389347Y-75853653D02*
X115389347Y-75996510D01*
X115389347Y-75996510D02*
X115341728Y-76186986D01*
X115341728Y-76186986D02*
X115294109Y-76282224D01*
X115294109Y-76282224D02*
X115198871Y-76377462D01*
X115198871Y-76377462D02*
X115056014Y-76425081D01*
X115056014Y-76425081D02*
X114960776Y-76425081D01*
X114960776Y-76425081D02*
X114817919Y-76377462D01*
X114817919Y-76377462D02*
X114770300Y-76329843D01*
X114770300Y-76329843D02*
X114770300Y-75996510D01*
X114770300Y-75996510D02*
X114960776Y-75996510D01*
X114341728Y-76425081D02*
X114341728Y-75425081D01*
X114341728Y-75425081D02*
X113960776Y-75425081D01*
X113960776Y-75425081D02*
X113865538Y-75472701D01*
X113865538Y-75472701D02*
X113817919Y-75520320D01*
X113817919Y-75520320D02*
X113770300Y-75615558D01*
X113770300Y-75615558D02*
X113770300Y-75758415D01*
X113770300Y-75758415D02*
X113817919Y-75853653D01*
X113817919Y-75853653D02*
X113865538Y-75901272D01*
X113865538Y-75901272D02*
X113960776Y-75948891D01*
X113960776Y-75948891D02*
X114341728Y-75948891D01*
X113341728Y-76425081D02*
X113341728Y-75425081D01*
X112675062Y-75425081D02*
X112484586Y-75425081D01*
X112484586Y-75425081D02*
X112389348Y-75472701D01*
X112389348Y-75472701D02*
X112294110Y-75567939D01*
X112294110Y-75567939D02*
X112246491Y-75758415D01*
X112246491Y-75758415D02*
X112246491Y-76091748D01*
X112246491Y-76091748D02*
X112294110Y-76282224D01*
X112294110Y-76282224D02*
X112389348Y-76377462D01*
X112389348Y-76377462D02*
X112484586Y-76425081D01*
X112484586Y-76425081D02*
X112675062Y-76425081D01*
X112675062Y-76425081D02*
X112770300Y-76377462D01*
X112770300Y-76377462D02*
X112865538Y-76282224D01*
X112865538Y-76282224D02*
X112913157Y-76091748D01*
X112913157Y-76091748D02*
X112913157Y-75758415D01*
X112913157Y-75758415D02*
X112865538Y-75567939D01*
X112865538Y-75567939D02*
X112770300Y-75472701D01*
X112770300Y-75472701D02*
X112675062Y-75425081D01*
X111913157Y-75425081D02*
X111294110Y-75425081D01*
X111294110Y-75425081D02*
X111627443Y-75806034D01*
X111627443Y-75806034D02*
X111484586Y-75806034D01*
X111484586Y-75806034D02*
X111389348Y-75853653D01*
X111389348Y-75853653D02*
X111341729Y-75901272D01*
X111341729Y-75901272D02*
X111294110Y-75996510D01*
X111294110Y-75996510D02*
X111294110Y-76234605D01*
X111294110Y-76234605D02*
X111341729Y-76329843D01*
X111341729Y-76329843D02*
X111389348Y-76377462D01*
X111389348Y-76377462D02*
X111484586Y-76425081D01*
X111484586Y-76425081D02*
X111770300Y-76425081D01*
X111770300Y-76425081D02*
X111865538Y-76377462D01*
X111865538Y-76377462D02*
X111913157Y-76329843D01*
X119608395Y-78045081D02*
X120084585Y-78045081D01*
X120084585Y-78045081D02*
X120084585Y-77045081D01*
X119275061Y-77521272D02*
X118941728Y-77521272D01*
X118798871Y-78045081D02*
X119275061Y-78045081D01*
X119275061Y-78045081D02*
X119275061Y-77045081D01*
X119275061Y-77045081D02*
X118798871Y-77045081D01*
X118370299Y-78045081D02*
X118370299Y-77045081D01*
X118370299Y-77045081D02*
X118132204Y-77045081D01*
X118132204Y-77045081D02*
X117989347Y-77092701D01*
X117989347Y-77092701D02*
X117894109Y-77187939D01*
X117894109Y-77187939D02*
X117846490Y-77283177D01*
X117846490Y-77283177D02*
X117798871Y-77473653D01*
X117798871Y-77473653D02*
X117798871Y-77616510D01*
X117798871Y-77616510D02*
X117846490Y-77806986D01*
X117846490Y-77806986D02*
X117894109Y-77902224D01*
X117894109Y-77902224D02*
X117989347Y-77997462D01*
X117989347Y-77997462D02*
X118132204Y-78045081D01*
X118132204Y-78045081D02*
X118370299Y-78045081D01*
X117417918Y-77140320D02*
X117370299Y-77092701D01*
X117370299Y-77092701D02*
X117275061Y-77045081D01*
X117275061Y-77045081D02*
X117036966Y-77045081D01*
X117036966Y-77045081D02*
X116941728Y-77092701D01*
X116941728Y-77092701D02*
X116894109Y-77140320D01*
X116894109Y-77140320D02*
X116846490Y-77235558D01*
X116846490Y-77235558D02*
X116846490Y-77330796D01*
X116846490Y-77330796D02*
X116894109Y-77473653D01*
X116894109Y-77473653D02*
X117465537Y-78045081D01*
X117465537Y-78045081D02*
X116846490Y-78045081D01*
X116417918Y-77949843D02*
X116370299Y-77997462D01*
X116370299Y-77997462D02*
X116417918Y-78045081D01*
X116417918Y-78045081D02*
X116465537Y-77997462D01*
X116465537Y-77997462D02*
X116417918Y-77949843D01*
X116417918Y-77949843D02*
X116417918Y-78045081D01*
X116417918Y-77426034D02*
X116370299Y-77473653D01*
X116370299Y-77473653D02*
X116417918Y-77521272D01*
X116417918Y-77521272D02*
X116465537Y-77473653D01*
X116465537Y-77473653D02*
X116417918Y-77426034D01*
X116417918Y-77426034D02*
X116417918Y-77521272D01*
X114817919Y-77092701D02*
X114913157Y-77045081D01*
X114913157Y-77045081D02*
X115056014Y-77045081D01*
X115056014Y-77045081D02*
X115198871Y-77092701D01*
X115198871Y-77092701D02*
X115294109Y-77187939D01*
X115294109Y-77187939D02*
X115341728Y-77283177D01*
X115341728Y-77283177D02*
X115389347Y-77473653D01*
X115389347Y-77473653D02*
X115389347Y-77616510D01*
X115389347Y-77616510D02*
X115341728Y-77806986D01*
X115341728Y-77806986D02*
X115294109Y-77902224D01*
X115294109Y-77902224D02*
X115198871Y-77997462D01*
X115198871Y-77997462D02*
X115056014Y-78045081D01*
X115056014Y-78045081D02*
X114960776Y-78045081D01*
X114960776Y-78045081D02*
X114817919Y-77997462D01*
X114817919Y-77997462D02*
X114770300Y-77949843D01*
X114770300Y-77949843D02*
X114770300Y-77616510D01*
X114770300Y-77616510D02*
X114960776Y-77616510D01*
X114341728Y-78045081D02*
X114341728Y-77045081D01*
X114341728Y-77045081D02*
X113960776Y-77045081D01*
X113960776Y-77045081D02*
X113865538Y-77092701D01*
X113865538Y-77092701D02*
X113817919Y-77140320D01*
X113817919Y-77140320D02*
X113770300Y-77235558D01*
X113770300Y-77235558D02*
X113770300Y-77378415D01*
X113770300Y-77378415D02*
X113817919Y-77473653D01*
X113817919Y-77473653D02*
X113865538Y-77521272D01*
X113865538Y-77521272D02*
X113960776Y-77568891D01*
X113960776Y-77568891D02*
X114341728Y-77568891D01*
X113341728Y-78045081D02*
X113341728Y-77045081D01*
X112675062Y-77045081D02*
X112484586Y-77045081D01*
X112484586Y-77045081D02*
X112389348Y-77092701D01*
X112389348Y-77092701D02*
X112294110Y-77187939D01*
X112294110Y-77187939D02*
X112246491Y-77378415D01*
X112246491Y-77378415D02*
X112246491Y-77711748D01*
X112246491Y-77711748D02*
X112294110Y-77902224D01*
X112294110Y-77902224D02*
X112389348Y-77997462D01*
X112389348Y-77997462D02*
X112484586Y-78045081D01*
X112484586Y-78045081D02*
X112675062Y-78045081D01*
X112675062Y-78045081D02*
X112770300Y-77997462D01*
X112770300Y-77997462D02*
X112865538Y-77902224D01*
X112865538Y-77902224D02*
X112913157Y-77711748D01*
X112913157Y-77711748D02*
X112913157Y-77378415D01*
X112913157Y-77378415D02*
X112865538Y-77187939D01*
X112865538Y-77187939D02*
X112770300Y-77092701D01*
X112770300Y-77092701D02*
X112675062Y-77045081D01*
X111389348Y-77378415D02*
X111389348Y-78045081D01*
X111627443Y-76997462D02*
X111865538Y-77711748D01*
X111865538Y-77711748D02*
X111246491Y-77711748D01*
X119608395Y-79665081D02*
X120084585Y-79665081D01*
X120084585Y-79665081D02*
X120084585Y-78665081D01*
X119275061Y-79141272D02*
X118941728Y-79141272D01*
X118798871Y-79665081D02*
X119275061Y-79665081D01*
X119275061Y-79665081D02*
X119275061Y-78665081D01*
X119275061Y-78665081D02*
X118798871Y-78665081D01*
X118370299Y-79665081D02*
X118370299Y-78665081D01*
X118370299Y-78665081D02*
X118132204Y-78665081D01*
X118132204Y-78665081D02*
X117989347Y-78712701D01*
X117989347Y-78712701D02*
X117894109Y-78807939D01*
X117894109Y-78807939D02*
X117846490Y-78903177D01*
X117846490Y-78903177D02*
X117798871Y-79093653D01*
X117798871Y-79093653D02*
X117798871Y-79236510D01*
X117798871Y-79236510D02*
X117846490Y-79426986D01*
X117846490Y-79426986D02*
X117894109Y-79522224D01*
X117894109Y-79522224D02*
X117989347Y-79617462D01*
X117989347Y-79617462D02*
X118132204Y-79665081D01*
X118132204Y-79665081D02*
X118370299Y-79665081D01*
X117465537Y-78665081D02*
X116846490Y-78665081D01*
X116846490Y-78665081D02*
X117179823Y-79046034D01*
X117179823Y-79046034D02*
X117036966Y-79046034D01*
X117036966Y-79046034D02*
X116941728Y-79093653D01*
X116941728Y-79093653D02*
X116894109Y-79141272D01*
X116894109Y-79141272D02*
X116846490Y-79236510D01*
X116846490Y-79236510D02*
X116846490Y-79474605D01*
X116846490Y-79474605D02*
X116894109Y-79569843D01*
X116894109Y-79569843D02*
X116941728Y-79617462D01*
X116941728Y-79617462D02*
X117036966Y-79665081D01*
X117036966Y-79665081D02*
X117322680Y-79665081D01*
X117322680Y-79665081D02*
X117417918Y-79617462D01*
X117417918Y-79617462D02*
X117465537Y-79569843D01*
X116417918Y-79569843D02*
X116370299Y-79617462D01*
X116370299Y-79617462D02*
X116417918Y-79665081D01*
X116417918Y-79665081D02*
X116465537Y-79617462D01*
X116465537Y-79617462D02*
X116417918Y-79569843D01*
X116417918Y-79569843D02*
X116417918Y-79665081D01*
X116417918Y-79046034D02*
X116370299Y-79093653D01*
X116370299Y-79093653D02*
X116417918Y-79141272D01*
X116417918Y-79141272D02*
X116465537Y-79093653D01*
X116465537Y-79093653D02*
X116417918Y-79046034D01*
X116417918Y-79046034D02*
X116417918Y-79141272D01*
X114817919Y-78712701D02*
X114913157Y-78665081D01*
X114913157Y-78665081D02*
X115056014Y-78665081D01*
X115056014Y-78665081D02*
X115198871Y-78712701D01*
X115198871Y-78712701D02*
X115294109Y-78807939D01*
X115294109Y-78807939D02*
X115341728Y-78903177D01*
X115341728Y-78903177D02*
X115389347Y-79093653D01*
X115389347Y-79093653D02*
X115389347Y-79236510D01*
X115389347Y-79236510D02*
X115341728Y-79426986D01*
X115341728Y-79426986D02*
X115294109Y-79522224D01*
X115294109Y-79522224D02*
X115198871Y-79617462D01*
X115198871Y-79617462D02*
X115056014Y-79665081D01*
X115056014Y-79665081D02*
X114960776Y-79665081D01*
X114960776Y-79665081D02*
X114817919Y-79617462D01*
X114817919Y-79617462D02*
X114770300Y-79569843D01*
X114770300Y-79569843D02*
X114770300Y-79236510D01*
X114770300Y-79236510D02*
X114960776Y-79236510D01*
X114341728Y-79665081D02*
X114341728Y-78665081D01*
X114341728Y-78665081D02*
X113960776Y-78665081D01*
X113960776Y-78665081D02*
X113865538Y-78712701D01*
X113865538Y-78712701D02*
X113817919Y-78760320D01*
X113817919Y-78760320D02*
X113770300Y-78855558D01*
X113770300Y-78855558D02*
X113770300Y-78998415D01*
X113770300Y-78998415D02*
X113817919Y-79093653D01*
X113817919Y-79093653D02*
X113865538Y-79141272D01*
X113865538Y-79141272D02*
X113960776Y-79188891D01*
X113960776Y-79188891D02*
X114341728Y-79188891D01*
X113341728Y-79665081D02*
X113341728Y-78665081D01*
X112675062Y-78665081D02*
X112484586Y-78665081D01*
X112484586Y-78665081D02*
X112389348Y-78712701D01*
X112389348Y-78712701D02*
X112294110Y-78807939D01*
X112294110Y-78807939D02*
X112246491Y-78998415D01*
X112246491Y-78998415D02*
X112246491Y-79331748D01*
X112246491Y-79331748D02*
X112294110Y-79522224D01*
X112294110Y-79522224D02*
X112389348Y-79617462D01*
X112389348Y-79617462D02*
X112484586Y-79665081D01*
X112484586Y-79665081D02*
X112675062Y-79665081D01*
X112675062Y-79665081D02*
X112770300Y-79617462D01*
X112770300Y-79617462D02*
X112865538Y-79522224D01*
X112865538Y-79522224D02*
X112913157Y-79331748D01*
X112913157Y-79331748D02*
X112913157Y-78998415D01*
X112913157Y-78998415D02*
X112865538Y-78807939D01*
X112865538Y-78807939D02*
X112770300Y-78712701D01*
X112770300Y-78712701D02*
X112675062Y-78665081D01*
X111341729Y-78665081D02*
X111817919Y-78665081D01*
X111817919Y-78665081D02*
X111865538Y-79141272D01*
X111865538Y-79141272D02*
X111817919Y-79093653D01*
X111817919Y-79093653D02*
X111722681Y-79046034D01*
X111722681Y-79046034D02*
X111484586Y-79046034D01*
X111484586Y-79046034D02*
X111389348Y-79093653D01*
X111389348Y-79093653D02*
X111341729Y-79141272D01*
X111341729Y-79141272D02*
X111294110Y-79236510D01*
X111294110Y-79236510D02*
X111294110Y-79474605D01*
X111294110Y-79474605D02*
X111341729Y-79569843D01*
X111341729Y-79569843D02*
X111389348Y-79617462D01*
X111389348Y-79617462D02*
X111484586Y-79665081D01*
X111484586Y-79665081D02*
X111722681Y-79665081D01*
X111722681Y-79665081D02*
X111817919Y-79617462D01*
X111817919Y-79617462D02*
X111865538Y-79569843D01*
X119608395Y-81285081D02*
X120084585Y-81285081D01*
X120084585Y-81285081D02*
X120084585Y-80285081D01*
X119275061Y-80761272D02*
X118941728Y-80761272D01*
X118798871Y-81285081D02*
X119275061Y-81285081D01*
X119275061Y-81285081D02*
X119275061Y-80285081D01*
X119275061Y-80285081D02*
X118798871Y-80285081D01*
X118370299Y-81285081D02*
X118370299Y-80285081D01*
X118370299Y-80285081D02*
X118132204Y-80285081D01*
X118132204Y-80285081D02*
X117989347Y-80332701D01*
X117989347Y-80332701D02*
X117894109Y-80427939D01*
X117894109Y-80427939D02*
X117846490Y-80523177D01*
X117846490Y-80523177D02*
X117798871Y-80713653D01*
X117798871Y-80713653D02*
X117798871Y-80856510D01*
X117798871Y-80856510D02*
X117846490Y-81046986D01*
X117846490Y-81046986D02*
X117894109Y-81142224D01*
X117894109Y-81142224D02*
X117989347Y-81237462D01*
X117989347Y-81237462D02*
X118132204Y-81285081D01*
X118132204Y-81285081D02*
X118370299Y-81285081D01*
X116941728Y-80618415D02*
X116941728Y-81285081D01*
X117179823Y-80237462D02*
X117417918Y-80951748D01*
X117417918Y-80951748D02*
X116798871Y-80951748D01*
X116417918Y-81189843D02*
X116370299Y-81237462D01*
X116370299Y-81237462D02*
X116417918Y-81285081D01*
X116417918Y-81285081D02*
X116465537Y-81237462D01*
X116465537Y-81237462D02*
X116417918Y-81189843D01*
X116417918Y-81189843D02*
X116417918Y-81285081D01*
X116417918Y-80666034D02*
X116370299Y-80713653D01*
X116370299Y-80713653D02*
X116417918Y-80761272D01*
X116417918Y-80761272D02*
X116465537Y-80713653D01*
X116465537Y-80713653D02*
X116417918Y-80666034D01*
X116417918Y-80666034D02*
X116417918Y-80761272D01*
X114817919Y-80332701D02*
X114913157Y-80285081D01*
X114913157Y-80285081D02*
X115056014Y-80285081D01*
X115056014Y-80285081D02*
X115198871Y-80332701D01*
X115198871Y-80332701D02*
X115294109Y-80427939D01*
X115294109Y-80427939D02*
X115341728Y-80523177D01*
X115341728Y-80523177D02*
X115389347Y-80713653D01*
X115389347Y-80713653D02*
X115389347Y-80856510D01*
X115389347Y-80856510D02*
X115341728Y-81046986D01*
X115341728Y-81046986D02*
X115294109Y-81142224D01*
X115294109Y-81142224D02*
X115198871Y-81237462D01*
X115198871Y-81237462D02*
X115056014Y-81285081D01*
X115056014Y-81285081D02*
X114960776Y-81285081D01*
X114960776Y-81285081D02*
X114817919Y-81237462D01*
X114817919Y-81237462D02*
X114770300Y-81189843D01*
X114770300Y-81189843D02*
X114770300Y-80856510D01*
X114770300Y-80856510D02*
X114960776Y-80856510D01*
X114341728Y-81285081D02*
X114341728Y-80285081D01*
X114341728Y-80285081D02*
X113960776Y-80285081D01*
X113960776Y-80285081D02*
X113865538Y-80332701D01*
X113865538Y-80332701D02*
X113817919Y-80380320D01*
X113817919Y-80380320D02*
X113770300Y-80475558D01*
X113770300Y-80475558D02*
X113770300Y-80618415D01*
X113770300Y-80618415D02*
X113817919Y-80713653D01*
X113817919Y-80713653D02*
X113865538Y-80761272D01*
X113865538Y-80761272D02*
X113960776Y-80808891D01*
X113960776Y-80808891D02*
X114341728Y-80808891D01*
X113341728Y-81285081D02*
X113341728Y-80285081D01*
X112675062Y-80285081D02*
X112484586Y-80285081D01*
X112484586Y-80285081D02*
X112389348Y-80332701D01*
X112389348Y-80332701D02*
X112294110Y-80427939D01*
X112294110Y-80427939D02*
X112246491Y-80618415D01*
X112246491Y-80618415D02*
X112246491Y-80951748D01*
X112246491Y-80951748D02*
X112294110Y-81142224D01*
X112294110Y-81142224D02*
X112389348Y-81237462D01*
X112389348Y-81237462D02*
X112484586Y-81285081D01*
X112484586Y-81285081D02*
X112675062Y-81285081D01*
X112675062Y-81285081D02*
X112770300Y-81237462D01*
X112770300Y-81237462D02*
X112865538Y-81142224D01*
X112865538Y-81142224D02*
X112913157Y-80951748D01*
X112913157Y-80951748D02*
X112913157Y-80618415D01*
X112913157Y-80618415D02*
X112865538Y-80427939D01*
X112865538Y-80427939D02*
X112770300Y-80332701D01*
X112770300Y-80332701D02*
X112675062Y-80285081D01*
X111389348Y-80285081D02*
X111579824Y-80285081D01*
X111579824Y-80285081D02*
X111675062Y-80332701D01*
X111675062Y-80332701D02*
X111722681Y-80380320D01*
X111722681Y-80380320D02*
X111817919Y-80523177D01*
X111817919Y-80523177D02*
X111865538Y-80713653D01*
X111865538Y-80713653D02*
X111865538Y-81094605D01*
X111865538Y-81094605D02*
X111817919Y-81189843D01*
X111817919Y-81189843D02*
X111770300Y-81237462D01*
X111770300Y-81237462D02*
X111675062Y-81285081D01*
X111675062Y-81285081D02*
X111484586Y-81285081D01*
X111484586Y-81285081D02*
X111389348Y-81237462D01*
X111389348Y-81237462D02*
X111341729Y-81189843D01*
X111341729Y-81189843D02*
X111294110Y-81094605D01*
X111294110Y-81094605D02*
X111294110Y-80856510D01*
X111294110Y-80856510D02*
X111341729Y-80761272D01*
X111341729Y-80761272D02*
X111389348Y-80713653D01*
X111389348Y-80713653D02*
X111484586Y-80666034D01*
X111484586Y-80666034D02*
X111675062Y-80666034D01*
X111675062Y-80666034D02*
X111770300Y-80713653D01*
X111770300Y-80713653D02*
X111817919Y-80761272D01*
X111817919Y-80761272D02*
X111865538Y-80856510D01*
X120084585Y-84525081D02*
X120084585Y-83525081D01*
X120084585Y-83525081D02*
X119513157Y-84525081D01*
X119513157Y-84525081D02*
X119513157Y-83525081D01*
X119036966Y-84525081D02*
X119036966Y-83525081D01*
X119036966Y-83525081D02*
X118656014Y-83525081D01*
X118656014Y-83525081D02*
X118560776Y-83572701D01*
X118560776Y-83572701D02*
X118513157Y-83620320D01*
X118513157Y-83620320D02*
X118465538Y-83715558D01*
X118465538Y-83715558D02*
X118465538Y-83858415D01*
X118465538Y-83858415D02*
X118513157Y-83953653D01*
X118513157Y-83953653D02*
X118560776Y-84001272D01*
X118560776Y-84001272D02*
X118656014Y-84048891D01*
X118656014Y-84048891D02*
X119036966Y-84048891D01*
X118036966Y-84525081D02*
X118036966Y-83525081D01*
X118036966Y-83525081D02*
X117703633Y-84239367D01*
X117703633Y-84239367D02*
X117370300Y-83525081D01*
X117370300Y-83525081D02*
X117370300Y-84525081D01*
X116894109Y-84429843D02*
X116846490Y-84477462D01*
X116846490Y-84477462D02*
X116894109Y-84525081D01*
X116894109Y-84525081D02*
X116941728Y-84477462D01*
X116941728Y-84477462D02*
X116894109Y-84429843D01*
X116894109Y-84429843D02*
X116894109Y-84525081D01*
X116894109Y-83906034D02*
X116846490Y-83953653D01*
X116846490Y-83953653D02*
X116894109Y-84001272D01*
X116894109Y-84001272D02*
X116941728Y-83953653D01*
X116941728Y-83953653D02*
X116894109Y-83906034D01*
X116894109Y-83906034D02*
X116894109Y-84001272D01*
X115294110Y-83572701D02*
X115389348Y-83525081D01*
X115389348Y-83525081D02*
X115532205Y-83525081D01*
X115532205Y-83525081D02*
X115675062Y-83572701D01*
X115675062Y-83572701D02*
X115770300Y-83667939D01*
X115770300Y-83667939D02*
X115817919Y-83763177D01*
X115817919Y-83763177D02*
X115865538Y-83953653D01*
X115865538Y-83953653D02*
X115865538Y-84096510D01*
X115865538Y-84096510D02*
X115817919Y-84286986D01*
X115817919Y-84286986D02*
X115770300Y-84382224D01*
X115770300Y-84382224D02*
X115675062Y-84477462D01*
X115675062Y-84477462D02*
X115532205Y-84525081D01*
X115532205Y-84525081D02*
X115436967Y-84525081D01*
X115436967Y-84525081D02*
X115294110Y-84477462D01*
X115294110Y-84477462D02*
X115246491Y-84429843D01*
X115246491Y-84429843D02*
X115246491Y-84096510D01*
X115246491Y-84096510D02*
X115436967Y-84096510D01*
X114817919Y-84525081D02*
X114817919Y-83525081D01*
X114817919Y-83525081D02*
X114436967Y-83525081D01*
X114436967Y-83525081D02*
X114341729Y-83572701D01*
X114341729Y-83572701D02*
X114294110Y-83620320D01*
X114294110Y-83620320D02*
X114246491Y-83715558D01*
X114246491Y-83715558D02*
X114246491Y-83858415D01*
X114246491Y-83858415D02*
X114294110Y-83953653D01*
X114294110Y-83953653D02*
X114341729Y-84001272D01*
X114341729Y-84001272D02*
X114436967Y-84048891D01*
X114436967Y-84048891D02*
X114817919Y-84048891D01*
X113817919Y-84525081D02*
X113817919Y-83525081D01*
X113151253Y-83525081D02*
X112960777Y-83525081D01*
X112960777Y-83525081D02*
X112865539Y-83572701D01*
X112865539Y-83572701D02*
X112770301Y-83667939D01*
X112770301Y-83667939D02*
X112722682Y-83858415D01*
X112722682Y-83858415D02*
X112722682Y-84191748D01*
X112722682Y-84191748D02*
X112770301Y-84382224D01*
X112770301Y-84382224D02*
X112865539Y-84477462D01*
X112865539Y-84477462D02*
X112960777Y-84525081D01*
X112960777Y-84525081D02*
X113151253Y-84525081D01*
X113151253Y-84525081D02*
X113246491Y-84477462D01*
X113246491Y-84477462D02*
X113341729Y-84382224D01*
X113341729Y-84382224D02*
X113389348Y-84191748D01*
X113389348Y-84191748D02*
X113389348Y-83858415D01*
X113389348Y-83858415D02*
X113341729Y-83667939D01*
X113341729Y-83667939D02*
X113246491Y-83572701D01*
X113246491Y-83572701D02*
X113151253Y-83525081D01*
X112389348Y-83525081D02*
X111722682Y-83525081D01*
X111722682Y-83525081D02*
X112151253Y-84525081D01*
X119513157Y-87765081D02*
X119846490Y-87288891D01*
X120084585Y-87765081D02*
X120084585Y-86765081D01*
X120084585Y-86765081D02*
X119703633Y-86765081D01*
X119703633Y-86765081D02*
X119608395Y-86812701D01*
X119608395Y-86812701D02*
X119560776Y-86860320D01*
X119560776Y-86860320D02*
X119513157Y-86955558D01*
X119513157Y-86955558D02*
X119513157Y-87098415D01*
X119513157Y-87098415D02*
X119560776Y-87193653D01*
X119560776Y-87193653D02*
X119608395Y-87241272D01*
X119608395Y-87241272D02*
X119703633Y-87288891D01*
X119703633Y-87288891D02*
X120084585Y-87288891D01*
X119084585Y-87241272D02*
X118751252Y-87241272D01*
X118608395Y-87765081D02*
X119084585Y-87765081D01*
X119084585Y-87765081D02*
X119084585Y-86765081D01*
X119084585Y-86765081D02*
X118608395Y-86765081D01*
X118179823Y-87241272D02*
X117846490Y-87241272D01*
X117703633Y-87765081D02*
X118179823Y-87765081D01*
X118179823Y-87765081D02*
X118179823Y-86765081D01*
X118179823Y-86765081D02*
X117703633Y-86765081D01*
X117275061Y-87765081D02*
X117275061Y-86765081D01*
X117275061Y-86765081D02*
X117036966Y-86765081D01*
X117036966Y-86765081D02*
X116894109Y-86812701D01*
X116894109Y-86812701D02*
X116798871Y-86907939D01*
X116798871Y-86907939D02*
X116751252Y-87003177D01*
X116751252Y-87003177D02*
X116703633Y-87193653D01*
X116703633Y-87193653D02*
X116703633Y-87336510D01*
X116703633Y-87336510D02*
X116751252Y-87526986D01*
X116751252Y-87526986D02*
X116798871Y-87622224D01*
X116798871Y-87622224D02*
X116894109Y-87717462D01*
X116894109Y-87717462D02*
X117036966Y-87765081D01*
X117036966Y-87765081D02*
X117275061Y-87765081D01*
X116322680Y-87717462D02*
X116179823Y-87765081D01*
X116179823Y-87765081D02*
X115941728Y-87765081D01*
X115941728Y-87765081D02*
X115846490Y-87717462D01*
X115846490Y-87717462D02*
X115798871Y-87669843D01*
X115798871Y-87669843D02*
X115751252Y-87574605D01*
X115751252Y-87574605D02*
X115751252Y-87479367D01*
X115751252Y-87479367D02*
X115798871Y-87384129D01*
X115798871Y-87384129D02*
X115846490Y-87336510D01*
X115846490Y-87336510D02*
X115941728Y-87288891D01*
X115941728Y-87288891D02*
X116132204Y-87241272D01*
X116132204Y-87241272D02*
X116227442Y-87193653D01*
X116227442Y-87193653D02*
X116275061Y-87146034D01*
X116275061Y-87146034D02*
X116322680Y-87050796D01*
X116322680Y-87050796D02*
X116322680Y-86955558D01*
X116322680Y-86955558D02*
X116275061Y-86860320D01*
X116275061Y-86860320D02*
X116227442Y-86812701D01*
X116227442Y-86812701D02*
X116132204Y-86765081D01*
X116132204Y-86765081D02*
X115894109Y-86765081D01*
X115894109Y-86765081D02*
X115751252Y-86812701D01*
X115417918Y-86765081D02*
X115179823Y-87765081D01*
X115179823Y-87765081D02*
X114989347Y-87050796D01*
X114989347Y-87050796D02*
X114798871Y-87765081D01*
X114798871Y-87765081D02*
X114560776Y-86765081D01*
X114179823Y-87765081D02*
X114179823Y-86765081D01*
X113846490Y-86765081D02*
X113275062Y-86765081D01*
X113560776Y-87765081D02*
X113560776Y-86765081D01*
X112370300Y-87669843D02*
X112417919Y-87717462D01*
X112417919Y-87717462D02*
X112560776Y-87765081D01*
X112560776Y-87765081D02*
X112656014Y-87765081D01*
X112656014Y-87765081D02*
X112798871Y-87717462D01*
X112798871Y-87717462D02*
X112894109Y-87622224D01*
X112894109Y-87622224D02*
X112941728Y-87526986D01*
X112941728Y-87526986D02*
X112989347Y-87336510D01*
X112989347Y-87336510D02*
X112989347Y-87193653D01*
X112989347Y-87193653D02*
X112941728Y-87003177D01*
X112941728Y-87003177D02*
X112894109Y-86907939D01*
X112894109Y-86907939D02*
X112798871Y-86812701D01*
X112798871Y-86812701D02*
X112656014Y-86765081D01*
X112656014Y-86765081D02*
X112560776Y-86765081D01*
X112560776Y-86765081D02*
X112417919Y-86812701D01*
X112417919Y-86812701D02*
X112370300Y-86860320D01*
X111941728Y-87765081D02*
X111941728Y-86765081D01*
X111941728Y-87241272D02*
X111370300Y-87241272D01*
X111370300Y-87765081D02*
X111370300Y-86765081D01*
X120132204Y-89337462D02*
X119989347Y-89385081D01*
X119989347Y-89385081D02*
X119751252Y-89385081D01*
X119751252Y-89385081D02*
X119656014Y-89337462D01*
X119656014Y-89337462D02*
X119608395Y-89289843D01*
X119608395Y-89289843D02*
X119560776Y-89194605D01*
X119560776Y-89194605D02*
X119560776Y-89099367D01*
X119560776Y-89099367D02*
X119608395Y-89004129D01*
X119608395Y-89004129D02*
X119656014Y-88956510D01*
X119656014Y-88956510D02*
X119751252Y-88908891D01*
X119751252Y-88908891D02*
X119941728Y-88861272D01*
X119941728Y-88861272D02*
X120036966Y-88813653D01*
X120036966Y-88813653D02*
X120084585Y-88766034D01*
X120084585Y-88766034D02*
X120132204Y-88670796D01*
X120132204Y-88670796D02*
X120132204Y-88575558D01*
X120132204Y-88575558D02*
X120084585Y-88480320D01*
X120084585Y-88480320D02*
X120036966Y-88432701D01*
X120036966Y-88432701D02*
X119941728Y-88385081D01*
X119941728Y-88385081D02*
X119703633Y-88385081D01*
X119703633Y-88385081D02*
X119560776Y-88432701D01*
X119227442Y-88385081D02*
X118989347Y-89385081D01*
X118989347Y-89385081D02*
X118798871Y-88670796D01*
X118798871Y-88670796D02*
X118608395Y-89385081D01*
X118608395Y-89385081D02*
X118370300Y-88385081D01*
X117465538Y-89385081D02*
X118036966Y-89385081D01*
X117751252Y-89385081D02*
X117751252Y-88385081D01*
X117751252Y-88385081D02*
X117846490Y-88527939D01*
X117846490Y-88527939D02*
X117941728Y-88623177D01*
X117941728Y-88623177D02*
X118036966Y-88670796D01*
X117036966Y-89289843D02*
X116989347Y-89337462D01*
X116989347Y-89337462D02*
X117036966Y-89385081D01*
X117036966Y-89385081D02*
X117084585Y-89337462D01*
X117084585Y-89337462D02*
X117036966Y-89289843D01*
X117036966Y-89289843D02*
X117036966Y-89385081D01*
X117036966Y-88766034D02*
X116989347Y-88813653D01*
X116989347Y-88813653D02*
X117036966Y-88861272D01*
X117036966Y-88861272D02*
X117084585Y-88813653D01*
X117084585Y-88813653D02*
X117036966Y-88766034D01*
X117036966Y-88766034D02*
X117036966Y-88861272D01*
X115436967Y-88432701D02*
X115532205Y-88385081D01*
X115532205Y-88385081D02*
X115675062Y-88385081D01*
X115675062Y-88385081D02*
X115817919Y-88432701D01*
X115817919Y-88432701D02*
X115913157Y-88527939D01*
X115913157Y-88527939D02*
X115960776Y-88623177D01*
X115960776Y-88623177D02*
X116008395Y-88813653D01*
X116008395Y-88813653D02*
X116008395Y-88956510D01*
X116008395Y-88956510D02*
X115960776Y-89146986D01*
X115960776Y-89146986D02*
X115913157Y-89242224D01*
X115913157Y-89242224D02*
X115817919Y-89337462D01*
X115817919Y-89337462D02*
X115675062Y-89385081D01*
X115675062Y-89385081D02*
X115579824Y-89385081D01*
X115579824Y-89385081D02*
X115436967Y-89337462D01*
X115436967Y-89337462D02*
X115389348Y-89289843D01*
X115389348Y-89289843D02*
X115389348Y-88956510D01*
X115389348Y-88956510D02*
X115579824Y-88956510D01*
X114960776Y-89385081D02*
X114960776Y-88385081D01*
X114960776Y-88385081D02*
X114579824Y-88385081D01*
X114579824Y-88385081D02*
X114484586Y-88432701D01*
X114484586Y-88432701D02*
X114436967Y-88480320D01*
X114436967Y-88480320D02*
X114389348Y-88575558D01*
X114389348Y-88575558D02*
X114389348Y-88718415D01*
X114389348Y-88718415D02*
X114436967Y-88813653D01*
X114436967Y-88813653D02*
X114484586Y-88861272D01*
X114484586Y-88861272D02*
X114579824Y-88908891D01*
X114579824Y-88908891D02*
X114960776Y-88908891D01*
X113960776Y-89385081D02*
X113960776Y-88385081D01*
X113294110Y-88385081D02*
X113103634Y-88385081D01*
X113103634Y-88385081D02*
X113008396Y-88432701D01*
X113008396Y-88432701D02*
X112913158Y-88527939D01*
X112913158Y-88527939D02*
X112865539Y-88718415D01*
X112865539Y-88718415D02*
X112865539Y-89051748D01*
X112865539Y-89051748D02*
X112913158Y-89242224D01*
X112913158Y-89242224D02*
X113008396Y-89337462D01*
X113008396Y-89337462D02*
X113103634Y-89385081D01*
X113103634Y-89385081D02*
X113294110Y-89385081D01*
X113294110Y-89385081D02*
X113389348Y-89337462D01*
X113389348Y-89337462D02*
X113484586Y-89242224D01*
X113484586Y-89242224D02*
X113532205Y-89051748D01*
X113532205Y-89051748D02*
X113532205Y-88718415D01*
X113532205Y-88718415D02*
X113484586Y-88527939D01*
X113484586Y-88527939D02*
X113389348Y-88432701D01*
X113389348Y-88432701D02*
X113294110Y-88385081D01*
X112294110Y-88813653D02*
X112389348Y-88766034D01*
X112389348Y-88766034D02*
X112436967Y-88718415D01*
X112436967Y-88718415D02*
X112484586Y-88623177D01*
X112484586Y-88623177D02*
X112484586Y-88575558D01*
X112484586Y-88575558D02*
X112436967Y-88480320D01*
X112436967Y-88480320D02*
X112389348Y-88432701D01*
X112389348Y-88432701D02*
X112294110Y-88385081D01*
X112294110Y-88385081D02*
X112103634Y-88385081D01*
X112103634Y-88385081D02*
X112008396Y-88432701D01*
X112008396Y-88432701D02*
X111960777Y-88480320D01*
X111960777Y-88480320D02*
X111913158Y-88575558D01*
X111913158Y-88575558D02*
X111913158Y-88623177D01*
X111913158Y-88623177D02*
X111960777Y-88718415D01*
X111960777Y-88718415D02*
X112008396Y-88766034D01*
X112008396Y-88766034D02*
X112103634Y-88813653D01*
X112103634Y-88813653D02*
X112294110Y-88813653D01*
X112294110Y-88813653D02*
X112389348Y-88861272D01*
X112389348Y-88861272D02*
X112436967Y-88908891D01*
X112436967Y-88908891D02*
X112484586Y-89004129D01*
X112484586Y-89004129D02*
X112484586Y-89194605D01*
X112484586Y-89194605D02*
X112436967Y-89289843D01*
X112436967Y-89289843D02*
X112389348Y-89337462D01*
X112389348Y-89337462D02*
X112294110Y-89385081D01*
X112294110Y-89385081D02*
X112103634Y-89385081D01*
X112103634Y-89385081D02*
X112008396Y-89337462D01*
X112008396Y-89337462D02*
X111960777Y-89289843D01*
X111960777Y-89289843D02*
X111913158Y-89194605D01*
X111913158Y-89194605D02*
X111913158Y-89004129D01*
X111913158Y-89004129D02*
X111960777Y-88908891D01*
X111960777Y-88908891D02*
X112008396Y-88861272D01*
X112008396Y-88861272D02*
X112103634Y-88813653D01*
X120132204Y-90957462D02*
X119989347Y-91005081D01*
X119989347Y-91005081D02*
X119751252Y-91005081D01*
X119751252Y-91005081D02*
X119656014Y-90957462D01*
X119656014Y-90957462D02*
X119608395Y-90909843D01*
X119608395Y-90909843D02*
X119560776Y-90814605D01*
X119560776Y-90814605D02*
X119560776Y-90719367D01*
X119560776Y-90719367D02*
X119608395Y-90624129D01*
X119608395Y-90624129D02*
X119656014Y-90576510D01*
X119656014Y-90576510D02*
X119751252Y-90528891D01*
X119751252Y-90528891D02*
X119941728Y-90481272D01*
X119941728Y-90481272D02*
X120036966Y-90433653D01*
X120036966Y-90433653D02*
X120084585Y-90386034D01*
X120084585Y-90386034D02*
X120132204Y-90290796D01*
X120132204Y-90290796D02*
X120132204Y-90195558D01*
X120132204Y-90195558D02*
X120084585Y-90100320D01*
X120084585Y-90100320D02*
X120036966Y-90052701D01*
X120036966Y-90052701D02*
X119941728Y-90005081D01*
X119941728Y-90005081D02*
X119703633Y-90005081D01*
X119703633Y-90005081D02*
X119560776Y-90052701D01*
X119227442Y-90005081D02*
X118989347Y-91005081D01*
X118989347Y-91005081D02*
X118798871Y-90290796D01*
X118798871Y-90290796D02*
X118608395Y-91005081D01*
X118608395Y-91005081D02*
X118370300Y-90005081D01*
X118036966Y-90100320D02*
X117989347Y-90052701D01*
X117989347Y-90052701D02*
X117894109Y-90005081D01*
X117894109Y-90005081D02*
X117656014Y-90005081D01*
X117656014Y-90005081D02*
X117560776Y-90052701D01*
X117560776Y-90052701D02*
X117513157Y-90100320D01*
X117513157Y-90100320D02*
X117465538Y-90195558D01*
X117465538Y-90195558D02*
X117465538Y-90290796D01*
X117465538Y-90290796D02*
X117513157Y-90433653D01*
X117513157Y-90433653D02*
X118084585Y-91005081D01*
X118084585Y-91005081D02*
X117465538Y-91005081D01*
X117036966Y-90909843D02*
X116989347Y-90957462D01*
X116989347Y-90957462D02*
X117036966Y-91005081D01*
X117036966Y-91005081D02*
X117084585Y-90957462D01*
X117084585Y-90957462D02*
X117036966Y-90909843D01*
X117036966Y-90909843D02*
X117036966Y-91005081D01*
X117036966Y-90386034D02*
X116989347Y-90433653D01*
X116989347Y-90433653D02*
X117036966Y-90481272D01*
X117036966Y-90481272D02*
X117084585Y-90433653D01*
X117084585Y-90433653D02*
X117036966Y-90386034D01*
X117036966Y-90386034D02*
X117036966Y-90481272D01*
X115436967Y-90052701D02*
X115532205Y-90005081D01*
X115532205Y-90005081D02*
X115675062Y-90005081D01*
X115675062Y-90005081D02*
X115817919Y-90052701D01*
X115817919Y-90052701D02*
X115913157Y-90147939D01*
X115913157Y-90147939D02*
X115960776Y-90243177D01*
X115960776Y-90243177D02*
X116008395Y-90433653D01*
X116008395Y-90433653D02*
X116008395Y-90576510D01*
X116008395Y-90576510D02*
X115960776Y-90766986D01*
X115960776Y-90766986D02*
X115913157Y-90862224D01*
X115913157Y-90862224D02*
X115817919Y-90957462D01*
X115817919Y-90957462D02*
X115675062Y-91005081D01*
X115675062Y-91005081D02*
X115579824Y-91005081D01*
X115579824Y-91005081D02*
X115436967Y-90957462D01*
X115436967Y-90957462D02*
X115389348Y-90909843D01*
X115389348Y-90909843D02*
X115389348Y-90576510D01*
X115389348Y-90576510D02*
X115579824Y-90576510D01*
X114960776Y-91005081D02*
X114960776Y-90005081D01*
X114960776Y-90005081D02*
X114579824Y-90005081D01*
X114579824Y-90005081D02*
X114484586Y-90052701D01*
X114484586Y-90052701D02*
X114436967Y-90100320D01*
X114436967Y-90100320D02*
X114389348Y-90195558D01*
X114389348Y-90195558D02*
X114389348Y-90338415D01*
X114389348Y-90338415D02*
X114436967Y-90433653D01*
X114436967Y-90433653D02*
X114484586Y-90481272D01*
X114484586Y-90481272D02*
X114579824Y-90528891D01*
X114579824Y-90528891D02*
X114960776Y-90528891D01*
X113960776Y-91005081D02*
X113960776Y-90005081D01*
X113294110Y-90005081D02*
X113103634Y-90005081D01*
X113103634Y-90005081D02*
X113008396Y-90052701D01*
X113008396Y-90052701D02*
X112913158Y-90147939D01*
X112913158Y-90147939D02*
X112865539Y-90338415D01*
X112865539Y-90338415D02*
X112865539Y-90671748D01*
X112865539Y-90671748D02*
X112913158Y-90862224D01*
X112913158Y-90862224D02*
X113008396Y-90957462D01*
X113008396Y-90957462D02*
X113103634Y-91005081D01*
X113103634Y-91005081D02*
X113294110Y-91005081D01*
X113294110Y-91005081D02*
X113389348Y-90957462D01*
X113389348Y-90957462D02*
X113484586Y-90862224D01*
X113484586Y-90862224D02*
X113532205Y-90671748D01*
X113532205Y-90671748D02*
X113532205Y-90338415D01*
X113532205Y-90338415D02*
X113484586Y-90147939D01*
X113484586Y-90147939D02*
X113389348Y-90052701D01*
X113389348Y-90052701D02*
X113294110Y-90005081D01*
X112389348Y-91005081D02*
X112198872Y-91005081D01*
X112198872Y-91005081D02*
X112103634Y-90957462D01*
X112103634Y-90957462D02*
X112056015Y-90909843D01*
X112056015Y-90909843D02*
X111960777Y-90766986D01*
X111960777Y-90766986D02*
X111913158Y-90576510D01*
X111913158Y-90576510D02*
X111913158Y-90195558D01*
X111913158Y-90195558D02*
X111960777Y-90100320D01*
X111960777Y-90100320D02*
X112008396Y-90052701D01*
X112008396Y-90052701D02*
X112103634Y-90005081D01*
X112103634Y-90005081D02*
X112294110Y-90005081D01*
X112294110Y-90005081D02*
X112389348Y-90052701D01*
X112389348Y-90052701D02*
X112436967Y-90100320D01*
X112436967Y-90100320D02*
X112484586Y-90195558D01*
X112484586Y-90195558D02*
X112484586Y-90433653D01*
X112484586Y-90433653D02*
X112436967Y-90528891D01*
X112436967Y-90528891D02*
X112389348Y-90576510D01*
X112389348Y-90576510D02*
X112294110Y-90624129D01*
X112294110Y-90624129D02*
X112103634Y-90624129D01*
X112103634Y-90624129D02*
X112008396Y-90576510D01*
X112008396Y-90576510D02*
X111960777Y-90528891D01*
X111960777Y-90528891D02*
X111913158Y-90433653D01*
X120132204Y-92577462D02*
X119989347Y-92625081D01*
X119989347Y-92625081D02*
X119751252Y-92625081D01*
X119751252Y-92625081D02*
X119656014Y-92577462D01*
X119656014Y-92577462D02*
X119608395Y-92529843D01*
X119608395Y-92529843D02*
X119560776Y-92434605D01*
X119560776Y-92434605D02*
X119560776Y-92339367D01*
X119560776Y-92339367D02*
X119608395Y-92244129D01*
X119608395Y-92244129D02*
X119656014Y-92196510D01*
X119656014Y-92196510D02*
X119751252Y-92148891D01*
X119751252Y-92148891D02*
X119941728Y-92101272D01*
X119941728Y-92101272D02*
X120036966Y-92053653D01*
X120036966Y-92053653D02*
X120084585Y-92006034D01*
X120084585Y-92006034D02*
X120132204Y-91910796D01*
X120132204Y-91910796D02*
X120132204Y-91815558D01*
X120132204Y-91815558D02*
X120084585Y-91720320D01*
X120084585Y-91720320D02*
X120036966Y-91672701D01*
X120036966Y-91672701D02*
X119941728Y-91625081D01*
X119941728Y-91625081D02*
X119703633Y-91625081D01*
X119703633Y-91625081D02*
X119560776Y-91672701D01*
X119227442Y-91625081D02*
X118989347Y-92625081D01*
X118989347Y-92625081D02*
X118798871Y-91910796D01*
X118798871Y-91910796D02*
X118608395Y-92625081D01*
X118608395Y-92625081D02*
X118370300Y-91625081D01*
X118084585Y-91625081D02*
X117465538Y-91625081D01*
X117465538Y-91625081D02*
X117798871Y-92006034D01*
X117798871Y-92006034D02*
X117656014Y-92006034D01*
X117656014Y-92006034D02*
X117560776Y-92053653D01*
X117560776Y-92053653D02*
X117513157Y-92101272D01*
X117513157Y-92101272D02*
X117465538Y-92196510D01*
X117465538Y-92196510D02*
X117465538Y-92434605D01*
X117465538Y-92434605D02*
X117513157Y-92529843D01*
X117513157Y-92529843D02*
X117560776Y-92577462D01*
X117560776Y-92577462D02*
X117656014Y-92625081D01*
X117656014Y-92625081D02*
X117941728Y-92625081D01*
X117941728Y-92625081D02*
X118036966Y-92577462D01*
X118036966Y-92577462D02*
X118084585Y-92529843D01*
X117036966Y-92529843D02*
X116989347Y-92577462D01*
X116989347Y-92577462D02*
X117036966Y-92625081D01*
X117036966Y-92625081D02*
X117084585Y-92577462D01*
X117084585Y-92577462D02*
X117036966Y-92529843D01*
X117036966Y-92529843D02*
X117036966Y-92625081D01*
X117036966Y-92006034D02*
X116989347Y-92053653D01*
X116989347Y-92053653D02*
X117036966Y-92101272D01*
X117036966Y-92101272D02*
X117084585Y-92053653D01*
X117084585Y-92053653D02*
X117036966Y-92006034D01*
X117036966Y-92006034D02*
X117036966Y-92101272D01*
X115436967Y-91672701D02*
X115532205Y-91625081D01*
X115532205Y-91625081D02*
X115675062Y-91625081D01*
X115675062Y-91625081D02*
X115817919Y-91672701D01*
X115817919Y-91672701D02*
X115913157Y-91767939D01*
X115913157Y-91767939D02*
X115960776Y-91863177D01*
X115960776Y-91863177D02*
X116008395Y-92053653D01*
X116008395Y-92053653D02*
X116008395Y-92196510D01*
X116008395Y-92196510D02*
X115960776Y-92386986D01*
X115960776Y-92386986D02*
X115913157Y-92482224D01*
X115913157Y-92482224D02*
X115817919Y-92577462D01*
X115817919Y-92577462D02*
X115675062Y-92625081D01*
X115675062Y-92625081D02*
X115579824Y-92625081D01*
X115579824Y-92625081D02*
X115436967Y-92577462D01*
X115436967Y-92577462D02*
X115389348Y-92529843D01*
X115389348Y-92529843D02*
X115389348Y-92196510D01*
X115389348Y-92196510D02*
X115579824Y-92196510D01*
X114960776Y-92625081D02*
X114960776Y-91625081D01*
X114960776Y-91625081D02*
X114579824Y-91625081D01*
X114579824Y-91625081D02*
X114484586Y-91672701D01*
X114484586Y-91672701D02*
X114436967Y-91720320D01*
X114436967Y-91720320D02*
X114389348Y-91815558D01*
X114389348Y-91815558D02*
X114389348Y-91958415D01*
X114389348Y-91958415D02*
X114436967Y-92053653D01*
X114436967Y-92053653D02*
X114484586Y-92101272D01*
X114484586Y-92101272D02*
X114579824Y-92148891D01*
X114579824Y-92148891D02*
X114960776Y-92148891D01*
X113960776Y-92625081D02*
X113960776Y-91625081D01*
X113294110Y-91625081D02*
X113103634Y-91625081D01*
X113103634Y-91625081D02*
X113008396Y-91672701D01*
X113008396Y-91672701D02*
X112913158Y-91767939D01*
X112913158Y-91767939D02*
X112865539Y-91958415D01*
X112865539Y-91958415D02*
X112865539Y-92291748D01*
X112865539Y-92291748D02*
X112913158Y-92482224D01*
X112913158Y-92482224D02*
X113008396Y-92577462D01*
X113008396Y-92577462D02*
X113103634Y-92625081D01*
X113103634Y-92625081D02*
X113294110Y-92625081D01*
X113294110Y-92625081D02*
X113389348Y-92577462D01*
X113389348Y-92577462D02*
X113484586Y-92482224D01*
X113484586Y-92482224D02*
X113532205Y-92291748D01*
X113532205Y-92291748D02*
X113532205Y-91958415D01*
X113532205Y-91958415D02*
X113484586Y-91767939D01*
X113484586Y-91767939D02*
X113389348Y-91672701D01*
X113389348Y-91672701D02*
X113294110Y-91625081D01*
X111913158Y-92625081D02*
X112484586Y-92625081D01*
X112198872Y-92625081D02*
X112198872Y-91625081D01*
X112198872Y-91625081D02*
X112294110Y-91767939D01*
X112294110Y-91767939D02*
X112389348Y-91863177D01*
X112389348Y-91863177D02*
X112484586Y-91910796D01*
X111294110Y-91625081D02*
X111198872Y-91625081D01*
X111198872Y-91625081D02*
X111103634Y-91672701D01*
X111103634Y-91672701D02*
X111056015Y-91720320D01*
X111056015Y-91720320D02*
X111008396Y-91815558D01*
X111008396Y-91815558D02*
X110960777Y-92006034D01*
X110960777Y-92006034D02*
X110960777Y-92244129D01*
X110960777Y-92244129D02*
X111008396Y-92434605D01*
X111008396Y-92434605D02*
X111056015Y-92529843D01*
X111056015Y-92529843D02*
X111103634Y-92577462D01*
X111103634Y-92577462D02*
X111198872Y-92625081D01*
X111198872Y-92625081D02*
X111294110Y-92625081D01*
X111294110Y-92625081D02*
X111389348Y-92577462D01*
X111389348Y-92577462D02*
X111436967Y-92529843D01*
X111436967Y-92529843D02*
X111484586Y-92434605D01*
X111484586Y-92434605D02*
X111532205Y-92244129D01*
X111532205Y-92244129D02*
X111532205Y-92006034D01*
X111532205Y-92006034D02*
X111484586Y-91815558D01*
X111484586Y-91815558D02*
X111436967Y-91720320D01*
X111436967Y-91720320D02*
X111389348Y-91672701D01*
X111389348Y-91672701D02*
X111294110Y-91625081D01*
X120132204Y-94197462D02*
X119989347Y-94245081D01*
X119989347Y-94245081D02*
X119751252Y-94245081D01*
X119751252Y-94245081D02*
X119656014Y-94197462D01*
X119656014Y-94197462D02*
X119608395Y-94149843D01*
X119608395Y-94149843D02*
X119560776Y-94054605D01*
X119560776Y-94054605D02*
X119560776Y-93959367D01*
X119560776Y-93959367D02*
X119608395Y-93864129D01*
X119608395Y-93864129D02*
X119656014Y-93816510D01*
X119656014Y-93816510D02*
X119751252Y-93768891D01*
X119751252Y-93768891D02*
X119941728Y-93721272D01*
X119941728Y-93721272D02*
X120036966Y-93673653D01*
X120036966Y-93673653D02*
X120084585Y-93626034D01*
X120084585Y-93626034D02*
X120132204Y-93530796D01*
X120132204Y-93530796D02*
X120132204Y-93435558D01*
X120132204Y-93435558D02*
X120084585Y-93340320D01*
X120084585Y-93340320D02*
X120036966Y-93292701D01*
X120036966Y-93292701D02*
X119941728Y-93245081D01*
X119941728Y-93245081D02*
X119703633Y-93245081D01*
X119703633Y-93245081D02*
X119560776Y-93292701D01*
X119227442Y-93245081D02*
X118989347Y-94245081D01*
X118989347Y-94245081D02*
X118798871Y-93530796D01*
X118798871Y-93530796D02*
X118608395Y-94245081D01*
X118608395Y-94245081D02*
X118370300Y-93245081D01*
X117560776Y-93578415D02*
X117560776Y-94245081D01*
X117798871Y-93197462D02*
X118036966Y-93911748D01*
X118036966Y-93911748D02*
X117417919Y-93911748D01*
X117036966Y-94149843D02*
X116989347Y-94197462D01*
X116989347Y-94197462D02*
X117036966Y-94245081D01*
X117036966Y-94245081D02*
X117084585Y-94197462D01*
X117084585Y-94197462D02*
X117036966Y-94149843D01*
X117036966Y-94149843D02*
X117036966Y-94245081D01*
X117036966Y-93626034D02*
X116989347Y-93673653D01*
X116989347Y-93673653D02*
X117036966Y-93721272D01*
X117036966Y-93721272D02*
X117084585Y-93673653D01*
X117084585Y-93673653D02*
X117036966Y-93626034D01*
X117036966Y-93626034D02*
X117036966Y-93721272D01*
X115436967Y-93292701D02*
X115532205Y-93245081D01*
X115532205Y-93245081D02*
X115675062Y-93245081D01*
X115675062Y-93245081D02*
X115817919Y-93292701D01*
X115817919Y-93292701D02*
X115913157Y-93387939D01*
X115913157Y-93387939D02*
X115960776Y-93483177D01*
X115960776Y-93483177D02*
X116008395Y-93673653D01*
X116008395Y-93673653D02*
X116008395Y-93816510D01*
X116008395Y-93816510D02*
X115960776Y-94006986D01*
X115960776Y-94006986D02*
X115913157Y-94102224D01*
X115913157Y-94102224D02*
X115817919Y-94197462D01*
X115817919Y-94197462D02*
X115675062Y-94245081D01*
X115675062Y-94245081D02*
X115579824Y-94245081D01*
X115579824Y-94245081D02*
X115436967Y-94197462D01*
X115436967Y-94197462D02*
X115389348Y-94149843D01*
X115389348Y-94149843D02*
X115389348Y-93816510D01*
X115389348Y-93816510D02*
X115579824Y-93816510D01*
X114960776Y-94245081D02*
X114960776Y-93245081D01*
X114960776Y-93245081D02*
X114579824Y-93245081D01*
X114579824Y-93245081D02*
X114484586Y-93292701D01*
X114484586Y-93292701D02*
X114436967Y-93340320D01*
X114436967Y-93340320D02*
X114389348Y-93435558D01*
X114389348Y-93435558D02*
X114389348Y-93578415D01*
X114389348Y-93578415D02*
X114436967Y-93673653D01*
X114436967Y-93673653D02*
X114484586Y-93721272D01*
X114484586Y-93721272D02*
X114579824Y-93768891D01*
X114579824Y-93768891D02*
X114960776Y-93768891D01*
X113960776Y-94245081D02*
X113960776Y-93245081D01*
X113294110Y-93245081D02*
X113103634Y-93245081D01*
X113103634Y-93245081D02*
X113008396Y-93292701D01*
X113008396Y-93292701D02*
X112913158Y-93387939D01*
X112913158Y-93387939D02*
X112865539Y-93578415D01*
X112865539Y-93578415D02*
X112865539Y-93911748D01*
X112865539Y-93911748D02*
X112913158Y-94102224D01*
X112913158Y-94102224D02*
X113008396Y-94197462D01*
X113008396Y-94197462D02*
X113103634Y-94245081D01*
X113103634Y-94245081D02*
X113294110Y-94245081D01*
X113294110Y-94245081D02*
X113389348Y-94197462D01*
X113389348Y-94197462D02*
X113484586Y-94102224D01*
X113484586Y-94102224D02*
X113532205Y-93911748D01*
X113532205Y-93911748D02*
X113532205Y-93578415D01*
X113532205Y-93578415D02*
X113484586Y-93387939D01*
X113484586Y-93387939D02*
X113389348Y-93292701D01*
X113389348Y-93292701D02*
X113294110Y-93245081D01*
X111913158Y-94245081D02*
X112484586Y-94245081D01*
X112198872Y-94245081D02*
X112198872Y-93245081D01*
X112198872Y-93245081D02*
X112294110Y-93387939D01*
X112294110Y-93387939D02*
X112389348Y-93483177D01*
X112389348Y-93483177D02*
X112484586Y-93530796D01*
X110960777Y-94245081D02*
X111532205Y-94245081D01*
X111246491Y-94245081D02*
X111246491Y-93245081D01*
X111246491Y-93245081D02*
X111341729Y-93387939D01*
X111341729Y-93387939D02*
X111436967Y-93483177D01*
X111436967Y-93483177D02*
X111532205Y-93530796D01*
X120084585Y-97485081D02*
X120084585Y-96485081D01*
X120084585Y-96485081D02*
X119513157Y-97485081D01*
X119513157Y-97485081D02*
X119513157Y-96485081D01*
X118703633Y-96961272D02*
X119036966Y-96961272D01*
X119036966Y-97485081D02*
X119036966Y-96485081D01*
X119036966Y-96485081D02*
X118560776Y-96485081D01*
X117608395Y-97389843D02*
X117656014Y-97437462D01*
X117656014Y-97437462D02*
X117798871Y-97485081D01*
X117798871Y-97485081D02*
X117894109Y-97485081D01*
X117894109Y-97485081D02*
X118036966Y-97437462D01*
X118036966Y-97437462D02*
X118132204Y-97342224D01*
X118132204Y-97342224D02*
X118179823Y-97246986D01*
X118179823Y-97246986D02*
X118227442Y-97056510D01*
X118227442Y-97056510D02*
X118227442Y-96913653D01*
X118227442Y-96913653D02*
X118179823Y-96723177D01*
X118179823Y-96723177D02*
X118132204Y-96627939D01*
X118132204Y-96627939D02*
X118036966Y-96532701D01*
X118036966Y-96532701D02*
X117894109Y-96485081D01*
X117894109Y-96485081D02*
X117798871Y-96485081D01*
X117798871Y-96485081D02*
X117656014Y-96532701D01*
X117656014Y-96532701D02*
X117608395Y-96580320D01*
X115770299Y-97485081D02*
X115817919Y-97485081D01*
X115817919Y-97485081D02*
X115913157Y-97437462D01*
X115913157Y-97437462D02*
X116056014Y-97294605D01*
X116056014Y-97294605D02*
X116294109Y-97008891D01*
X116294109Y-97008891D02*
X116389347Y-96866034D01*
X116389347Y-96866034D02*
X116436966Y-96723177D01*
X116436966Y-96723177D02*
X116436966Y-96627939D01*
X116436966Y-96627939D02*
X116389347Y-96532701D01*
X116389347Y-96532701D02*
X116294109Y-96485081D01*
X116294109Y-96485081D02*
X116246490Y-96485081D01*
X116246490Y-96485081D02*
X116151252Y-96532701D01*
X116151252Y-96532701D02*
X116103633Y-96627939D01*
X116103633Y-96627939D02*
X116103633Y-96675558D01*
X116103633Y-96675558D02*
X116151252Y-96770796D01*
X116151252Y-96770796D02*
X116198871Y-96818415D01*
X116198871Y-96818415D02*
X116484585Y-97008891D01*
X116484585Y-97008891D02*
X116532204Y-97056510D01*
X116532204Y-97056510D02*
X116579823Y-97151748D01*
X116579823Y-97151748D02*
X116579823Y-97294605D01*
X116579823Y-97294605D02*
X116532204Y-97389843D01*
X116532204Y-97389843D02*
X116484585Y-97437462D01*
X116484585Y-97437462D02*
X116389347Y-97485081D01*
X116389347Y-97485081D02*
X116246490Y-97485081D01*
X116246490Y-97485081D02*
X116151252Y-97437462D01*
X116151252Y-97437462D02*
X116103633Y-97389843D01*
X116103633Y-97389843D02*
X115960776Y-97199367D01*
X115960776Y-97199367D02*
X115913157Y-97056510D01*
X115913157Y-97056510D02*
X115913157Y-96961272D01*
X114265538Y-97485081D02*
X114741728Y-97485081D01*
X114741728Y-97485081D02*
X114741728Y-96485081D01*
X113932204Y-96961272D02*
X113598871Y-96961272D01*
X113456014Y-97485081D02*
X113932204Y-97485081D01*
X113932204Y-97485081D02*
X113932204Y-96485081D01*
X113932204Y-96485081D02*
X113456014Y-96485081D01*
X113027442Y-97485081D02*
X113027442Y-96485081D01*
X113027442Y-96485081D02*
X112789347Y-96485081D01*
X112789347Y-96485081D02*
X112646490Y-96532701D01*
X112646490Y-96532701D02*
X112551252Y-96627939D01*
X112551252Y-96627939D02*
X112503633Y-96723177D01*
X112503633Y-96723177D02*
X112456014Y-96913653D01*
X112456014Y-96913653D02*
X112456014Y-97056510D01*
X112456014Y-97056510D02*
X112503633Y-97246986D01*
X112503633Y-97246986D02*
X112551252Y-97342224D01*
X112551252Y-97342224D02*
X112646490Y-97437462D01*
X112646490Y-97437462D02*
X112789347Y-97485081D01*
X112789347Y-97485081D02*
X113027442Y-97485081D01*
X119608395Y-99105081D02*
X120084585Y-99105081D01*
X120084585Y-99105081D02*
X120084585Y-98105081D01*
X119275061Y-98581272D02*
X118941728Y-98581272D01*
X118798871Y-99105081D02*
X119275061Y-99105081D01*
X119275061Y-99105081D02*
X119275061Y-98105081D01*
X119275061Y-98105081D02*
X118798871Y-98105081D01*
X118370299Y-99105081D02*
X118370299Y-98105081D01*
X118370299Y-98105081D02*
X118132204Y-98105081D01*
X118132204Y-98105081D02*
X117989347Y-98152701D01*
X117989347Y-98152701D02*
X117894109Y-98247939D01*
X117894109Y-98247939D02*
X117846490Y-98343177D01*
X117846490Y-98343177D02*
X117798871Y-98533653D01*
X117798871Y-98533653D02*
X117798871Y-98676510D01*
X117798871Y-98676510D02*
X117846490Y-98866986D01*
X117846490Y-98866986D02*
X117894109Y-98962224D01*
X117894109Y-98962224D02*
X117989347Y-99057462D01*
X117989347Y-99057462D02*
X118132204Y-99105081D01*
X118132204Y-99105081D02*
X118370299Y-99105081D01*
X117370299Y-99009843D02*
X117322680Y-99057462D01*
X117322680Y-99057462D02*
X117370299Y-99105081D01*
X117370299Y-99105081D02*
X117417918Y-99057462D01*
X117417918Y-99057462D02*
X117370299Y-99009843D01*
X117370299Y-99009843D02*
X117370299Y-99105081D01*
X117370299Y-98486034D02*
X117322680Y-98533653D01*
X117322680Y-98533653D02*
X117370299Y-98581272D01*
X117370299Y-98581272D02*
X117417918Y-98533653D01*
X117417918Y-98533653D02*
X117370299Y-98486034D01*
X117370299Y-98486034D02*
X117370299Y-98581272D01*
X115770300Y-98152701D02*
X115865538Y-98105081D01*
X115865538Y-98105081D02*
X116008395Y-98105081D01*
X116008395Y-98105081D02*
X116151252Y-98152701D01*
X116151252Y-98152701D02*
X116246490Y-98247939D01*
X116246490Y-98247939D02*
X116294109Y-98343177D01*
X116294109Y-98343177D02*
X116341728Y-98533653D01*
X116341728Y-98533653D02*
X116341728Y-98676510D01*
X116341728Y-98676510D02*
X116294109Y-98866986D01*
X116294109Y-98866986D02*
X116246490Y-98962224D01*
X116246490Y-98962224D02*
X116151252Y-99057462D01*
X116151252Y-99057462D02*
X116008395Y-99105081D01*
X116008395Y-99105081D02*
X115913157Y-99105081D01*
X115913157Y-99105081D02*
X115770300Y-99057462D01*
X115770300Y-99057462D02*
X115722681Y-99009843D01*
X115722681Y-99009843D02*
X115722681Y-98676510D01*
X115722681Y-98676510D02*
X115913157Y-98676510D01*
X115294109Y-99105081D02*
X115294109Y-98105081D01*
X115294109Y-98105081D02*
X114913157Y-98105081D01*
X114913157Y-98105081D02*
X114817919Y-98152701D01*
X114817919Y-98152701D02*
X114770300Y-98200320D01*
X114770300Y-98200320D02*
X114722681Y-98295558D01*
X114722681Y-98295558D02*
X114722681Y-98438415D01*
X114722681Y-98438415D02*
X114770300Y-98533653D01*
X114770300Y-98533653D02*
X114817919Y-98581272D01*
X114817919Y-98581272D02*
X114913157Y-98628891D01*
X114913157Y-98628891D02*
X115294109Y-98628891D01*
X114294109Y-99105081D02*
X114294109Y-98105081D01*
X113627443Y-98105081D02*
X113436967Y-98105081D01*
X113436967Y-98105081D02*
X113341729Y-98152701D01*
X113341729Y-98152701D02*
X113246491Y-98247939D01*
X113246491Y-98247939D02*
X113198872Y-98438415D01*
X113198872Y-98438415D02*
X113198872Y-98771748D01*
X113198872Y-98771748D02*
X113246491Y-98962224D01*
X113246491Y-98962224D02*
X113341729Y-99057462D01*
X113341729Y-99057462D02*
X113436967Y-99105081D01*
X113436967Y-99105081D02*
X113627443Y-99105081D01*
X113627443Y-99105081D02*
X113722681Y-99057462D01*
X113722681Y-99057462D02*
X113817919Y-98962224D01*
X113817919Y-98962224D02*
X113865538Y-98771748D01*
X113865538Y-98771748D02*
X113865538Y-98438415D01*
X113865538Y-98438415D02*
X113817919Y-98247939D01*
X113817919Y-98247939D02*
X113722681Y-98152701D01*
X113722681Y-98152701D02*
X113627443Y-98105081D01*
X112246491Y-99105081D02*
X112817919Y-99105081D01*
X112532205Y-99105081D02*
X112532205Y-98105081D01*
X112532205Y-98105081D02*
X112627443Y-98247939D01*
X112627443Y-98247939D02*
X112722681Y-98343177D01*
X112722681Y-98343177D02*
X112817919Y-98390796D01*
X111913157Y-98105081D02*
X111294110Y-98105081D01*
X111294110Y-98105081D02*
X111627443Y-98486034D01*
X111627443Y-98486034D02*
X111484586Y-98486034D01*
X111484586Y-98486034D02*
X111389348Y-98533653D01*
X111389348Y-98533653D02*
X111341729Y-98581272D01*
X111341729Y-98581272D02*
X111294110Y-98676510D01*
X111294110Y-98676510D02*
X111294110Y-98914605D01*
X111294110Y-98914605D02*
X111341729Y-99009843D01*
X111341729Y-99009843D02*
X111389348Y-99057462D01*
X111389348Y-99057462D02*
X111484586Y-99105081D01*
X111484586Y-99105081D02*
X111770300Y-99105081D01*
X111770300Y-99105081D02*
X111865538Y-99057462D01*
X111865538Y-99057462D02*
X111913157Y-99009843D01*
X120132204Y-100677462D02*
X119989347Y-100725081D01*
X119989347Y-100725081D02*
X119751252Y-100725081D01*
X119751252Y-100725081D02*
X119656014Y-100677462D01*
X119656014Y-100677462D02*
X119608395Y-100629843D01*
X119608395Y-100629843D02*
X119560776Y-100534605D01*
X119560776Y-100534605D02*
X119560776Y-100439367D01*
X119560776Y-100439367D02*
X119608395Y-100344129D01*
X119608395Y-100344129D02*
X119656014Y-100296510D01*
X119656014Y-100296510D02*
X119751252Y-100248891D01*
X119751252Y-100248891D02*
X119941728Y-100201272D01*
X119941728Y-100201272D02*
X120036966Y-100153653D01*
X120036966Y-100153653D02*
X120084585Y-100106034D01*
X120084585Y-100106034D02*
X120132204Y-100010796D01*
X120132204Y-100010796D02*
X120132204Y-99915558D01*
X120132204Y-99915558D02*
X120084585Y-99820320D01*
X120084585Y-99820320D02*
X120036966Y-99772701D01*
X120036966Y-99772701D02*
X119941728Y-99725081D01*
X119941728Y-99725081D02*
X119703633Y-99725081D01*
X119703633Y-99725081D02*
X119560776Y-99772701D01*
X119132204Y-100725081D02*
X119132204Y-99725081D01*
X119132204Y-99725081D02*
X118894109Y-99725081D01*
X118894109Y-99725081D02*
X118751252Y-99772701D01*
X118751252Y-99772701D02*
X118656014Y-99867939D01*
X118656014Y-99867939D02*
X118608395Y-99963177D01*
X118608395Y-99963177D02*
X118560776Y-100153653D01*
X118560776Y-100153653D02*
X118560776Y-100296510D01*
X118560776Y-100296510D02*
X118608395Y-100486986D01*
X118608395Y-100486986D02*
X118656014Y-100582224D01*
X118656014Y-100582224D02*
X118751252Y-100677462D01*
X118751252Y-100677462D02*
X118894109Y-100725081D01*
X118894109Y-100725081D02*
X119132204Y-100725081D01*
X118179823Y-100439367D02*
X117703633Y-100439367D01*
X118275061Y-100725081D02*
X117941728Y-99725081D01*
X117941728Y-99725081D02*
X117608395Y-100725081D01*
X117275061Y-100629843D02*
X117227442Y-100677462D01*
X117227442Y-100677462D02*
X117275061Y-100725081D01*
X117275061Y-100725081D02*
X117322680Y-100677462D01*
X117322680Y-100677462D02*
X117275061Y-100629843D01*
X117275061Y-100629843D02*
X117275061Y-100725081D01*
X117275061Y-100106034D02*
X117227442Y-100153653D01*
X117227442Y-100153653D02*
X117275061Y-100201272D01*
X117275061Y-100201272D02*
X117322680Y-100153653D01*
X117322680Y-100153653D02*
X117275061Y-100106034D01*
X117275061Y-100106034D02*
X117275061Y-100201272D01*
X115675062Y-99772701D02*
X115770300Y-99725081D01*
X115770300Y-99725081D02*
X115913157Y-99725081D01*
X115913157Y-99725081D02*
X116056014Y-99772701D01*
X116056014Y-99772701D02*
X116151252Y-99867939D01*
X116151252Y-99867939D02*
X116198871Y-99963177D01*
X116198871Y-99963177D02*
X116246490Y-100153653D01*
X116246490Y-100153653D02*
X116246490Y-100296510D01*
X116246490Y-100296510D02*
X116198871Y-100486986D01*
X116198871Y-100486986D02*
X116151252Y-100582224D01*
X116151252Y-100582224D02*
X116056014Y-100677462D01*
X116056014Y-100677462D02*
X115913157Y-100725081D01*
X115913157Y-100725081D02*
X115817919Y-100725081D01*
X115817919Y-100725081D02*
X115675062Y-100677462D01*
X115675062Y-100677462D02*
X115627443Y-100629843D01*
X115627443Y-100629843D02*
X115627443Y-100296510D01*
X115627443Y-100296510D02*
X115817919Y-100296510D01*
X115198871Y-100725081D02*
X115198871Y-99725081D01*
X115198871Y-99725081D02*
X114817919Y-99725081D01*
X114817919Y-99725081D02*
X114722681Y-99772701D01*
X114722681Y-99772701D02*
X114675062Y-99820320D01*
X114675062Y-99820320D02*
X114627443Y-99915558D01*
X114627443Y-99915558D02*
X114627443Y-100058415D01*
X114627443Y-100058415D02*
X114675062Y-100153653D01*
X114675062Y-100153653D02*
X114722681Y-100201272D01*
X114722681Y-100201272D02*
X114817919Y-100248891D01*
X114817919Y-100248891D02*
X115198871Y-100248891D01*
X114198871Y-100725081D02*
X114198871Y-99725081D01*
X113532205Y-99725081D02*
X113341729Y-99725081D01*
X113341729Y-99725081D02*
X113246491Y-99772701D01*
X113246491Y-99772701D02*
X113151253Y-99867939D01*
X113151253Y-99867939D02*
X113103634Y-100058415D01*
X113103634Y-100058415D02*
X113103634Y-100391748D01*
X113103634Y-100391748D02*
X113151253Y-100582224D01*
X113151253Y-100582224D02*
X113246491Y-100677462D01*
X113246491Y-100677462D02*
X113341729Y-100725081D01*
X113341729Y-100725081D02*
X113532205Y-100725081D01*
X113532205Y-100725081D02*
X113627443Y-100677462D01*
X113627443Y-100677462D02*
X113722681Y-100582224D01*
X113722681Y-100582224D02*
X113770300Y-100391748D01*
X113770300Y-100391748D02*
X113770300Y-100058415D01*
X113770300Y-100058415D02*
X113722681Y-99867939D01*
X113722681Y-99867939D02*
X113627443Y-99772701D01*
X113627443Y-99772701D02*
X113532205Y-99725081D01*
X112151253Y-100725081D02*
X112722681Y-100725081D01*
X112436967Y-100725081D02*
X112436967Y-99725081D01*
X112436967Y-99725081D02*
X112532205Y-99867939D01*
X112532205Y-99867939D02*
X112627443Y-99963177D01*
X112627443Y-99963177D02*
X112722681Y-100010796D01*
X111294110Y-100058415D02*
X111294110Y-100725081D01*
X111532205Y-99677462D02*
X111770300Y-100391748D01*
X111770300Y-100391748D02*
X111151253Y-100391748D01*
X120132204Y-102297462D02*
X119989347Y-102345081D01*
X119989347Y-102345081D02*
X119751252Y-102345081D01*
X119751252Y-102345081D02*
X119656014Y-102297462D01*
X119656014Y-102297462D02*
X119608395Y-102249843D01*
X119608395Y-102249843D02*
X119560776Y-102154605D01*
X119560776Y-102154605D02*
X119560776Y-102059367D01*
X119560776Y-102059367D02*
X119608395Y-101964129D01*
X119608395Y-101964129D02*
X119656014Y-101916510D01*
X119656014Y-101916510D02*
X119751252Y-101868891D01*
X119751252Y-101868891D02*
X119941728Y-101821272D01*
X119941728Y-101821272D02*
X120036966Y-101773653D01*
X120036966Y-101773653D02*
X120084585Y-101726034D01*
X120084585Y-101726034D02*
X120132204Y-101630796D01*
X120132204Y-101630796D02*
X120132204Y-101535558D01*
X120132204Y-101535558D02*
X120084585Y-101440320D01*
X120084585Y-101440320D02*
X120036966Y-101392701D01*
X120036966Y-101392701D02*
X119941728Y-101345081D01*
X119941728Y-101345081D02*
X119703633Y-101345081D01*
X119703633Y-101345081D02*
X119560776Y-101392701D01*
X118560776Y-102249843D02*
X118608395Y-102297462D01*
X118608395Y-102297462D02*
X118751252Y-102345081D01*
X118751252Y-102345081D02*
X118846490Y-102345081D01*
X118846490Y-102345081D02*
X118989347Y-102297462D01*
X118989347Y-102297462D02*
X119084585Y-102202224D01*
X119084585Y-102202224D02*
X119132204Y-102106986D01*
X119132204Y-102106986D02*
X119179823Y-101916510D01*
X119179823Y-101916510D02*
X119179823Y-101773653D01*
X119179823Y-101773653D02*
X119132204Y-101583177D01*
X119132204Y-101583177D02*
X119084585Y-101487939D01*
X119084585Y-101487939D02*
X118989347Y-101392701D01*
X118989347Y-101392701D02*
X118846490Y-101345081D01*
X118846490Y-101345081D02*
X118751252Y-101345081D01*
X118751252Y-101345081D02*
X118608395Y-101392701D01*
X118608395Y-101392701D02*
X118560776Y-101440320D01*
X117656014Y-102345081D02*
X118132204Y-102345081D01*
X118132204Y-102345081D02*
X118132204Y-101345081D01*
X117322680Y-102249843D02*
X117275061Y-102297462D01*
X117275061Y-102297462D02*
X117322680Y-102345081D01*
X117322680Y-102345081D02*
X117370299Y-102297462D01*
X117370299Y-102297462D02*
X117322680Y-102249843D01*
X117322680Y-102249843D02*
X117322680Y-102345081D01*
X117322680Y-101726034D02*
X117275061Y-101773653D01*
X117275061Y-101773653D02*
X117322680Y-101821272D01*
X117322680Y-101821272D02*
X117370299Y-101773653D01*
X117370299Y-101773653D02*
X117322680Y-101726034D01*
X117322680Y-101726034D02*
X117322680Y-101821272D01*
X115722681Y-101392701D02*
X115817919Y-101345081D01*
X115817919Y-101345081D02*
X115960776Y-101345081D01*
X115960776Y-101345081D02*
X116103633Y-101392701D01*
X116103633Y-101392701D02*
X116198871Y-101487939D01*
X116198871Y-101487939D02*
X116246490Y-101583177D01*
X116246490Y-101583177D02*
X116294109Y-101773653D01*
X116294109Y-101773653D02*
X116294109Y-101916510D01*
X116294109Y-101916510D02*
X116246490Y-102106986D01*
X116246490Y-102106986D02*
X116198871Y-102202224D01*
X116198871Y-102202224D02*
X116103633Y-102297462D01*
X116103633Y-102297462D02*
X115960776Y-102345081D01*
X115960776Y-102345081D02*
X115865538Y-102345081D01*
X115865538Y-102345081D02*
X115722681Y-102297462D01*
X115722681Y-102297462D02*
X115675062Y-102249843D01*
X115675062Y-102249843D02*
X115675062Y-101916510D01*
X115675062Y-101916510D02*
X115865538Y-101916510D01*
X115246490Y-102345081D02*
X115246490Y-101345081D01*
X115246490Y-101345081D02*
X114865538Y-101345081D01*
X114865538Y-101345081D02*
X114770300Y-101392701D01*
X114770300Y-101392701D02*
X114722681Y-101440320D01*
X114722681Y-101440320D02*
X114675062Y-101535558D01*
X114675062Y-101535558D02*
X114675062Y-101678415D01*
X114675062Y-101678415D02*
X114722681Y-101773653D01*
X114722681Y-101773653D02*
X114770300Y-101821272D01*
X114770300Y-101821272D02*
X114865538Y-101868891D01*
X114865538Y-101868891D02*
X115246490Y-101868891D01*
X114246490Y-102345081D02*
X114246490Y-101345081D01*
X113579824Y-101345081D02*
X113389348Y-101345081D01*
X113389348Y-101345081D02*
X113294110Y-101392701D01*
X113294110Y-101392701D02*
X113198872Y-101487939D01*
X113198872Y-101487939D02*
X113151253Y-101678415D01*
X113151253Y-101678415D02*
X113151253Y-102011748D01*
X113151253Y-102011748D02*
X113198872Y-102202224D01*
X113198872Y-102202224D02*
X113294110Y-102297462D01*
X113294110Y-102297462D02*
X113389348Y-102345081D01*
X113389348Y-102345081D02*
X113579824Y-102345081D01*
X113579824Y-102345081D02*
X113675062Y-102297462D01*
X113675062Y-102297462D02*
X113770300Y-102202224D01*
X113770300Y-102202224D02*
X113817919Y-102011748D01*
X113817919Y-102011748D02*
X113817919Y-101678415D01*
X113817919Y-101678415D02*
X113770300Y-101487939D01*
X113770300Y-101487939D02*
X113675062Y-101392701D01*
X113675062Y-101392701D02*
X113579824Y-101345081D01*
X112198872Y-102345081D02*
X112770300Y-102345081D01*
X112484586Y-102345081D02*
X112484586Y-101345081D01*
X112484586Y-101345081D02*
X112579824Y-101487939D01*
X112579824Y-101487939D02*
X112675062Y-101583177D01*
X112675062Y-101583177D02*
X112770300Y-101630796D01*
X111294110Y-101345081D02*
X111770300Y-101345081D01*
X111770300Y-101345081D02*
X111817919Y-101821272D01*
X111817919Y-101821272D02*
X111770300Y-101773653D01*
X111770300Y-101773653D02*
X111675062Y-101726034D01*
X111675062Y-101726034D02*
X111436967Y-101726034D01*
X111436967Y-101726034D02*
X111341729Y-101773653D01*
X111341729Y-101773653D02*
X111294110Y-101821272D01*
X111294110Y-101821272D02*
X111246491Y-101916510D01*
X111246491Y-101916510D02*
X111246491Y-102154605D01*
X111246491Y-102154605D02*
X111294110Y-102249843D01*
X111294110Y-102249843D02*
X111341729Y-102297462D01*
X111341729Y-102297462D02*
X111436967Y-102345081D01*
X111436967Y-102345081D02*
X111675062Y-102345081D01*
X111675062Y-102345081D02*
X111770300Y-102297462D01*
X111770300Y-102297462D02*
X111817919Y-102249843D01*
X120084585Y-105585081D02*
X120084585Y-104585081D01*
X120084585Y-104585081D02*
X119703633Y-104585081D01*
X119703633Y-104585081D02*
X119608395Y-104632701D01*
X119608395Y-104632701D02*
X119560776Y-104680320D01*
X119560776Y-104680320D02*
X119513157Y-104775558D01*
X119513157Y-104775558D02*
X119513157Y-104918415D01*
X119513157Y-104918415D02*
X119560776Y-105013653D01*
X119560776Y-105013653D02*
X119608395Y-105061272D01*
X119608395Y-105061272D02*
X119703633Y-105108891D01*
X119703633Y-105108891D02*
X120084585Y-105108891D01*
X119084585Y-105585081D02*
X119084585Y-104585081D01*
X118036967Y-105585081D02*
X118370300Y-105108891D01*
X118608395Y-105585081D02*
X118608395Y-104585081D01*
X118608395Y-104585081D02*
X118227443Y-104585081D01*
X118227443Y-104585081D02*
X118132205Y-104632701D01*
X118132205Y-104632701D02*
X118084586Y-104680320D01*
X118084586Y-104680320D02*
X118036967Y-104775558D01*
X118036967Y-104775558D02*
X118036967Y-104918415D01*
X118036967Y-104918415D02*
X118084586Y-105013653D01*
X118084586Y-105013653D02*
X118132205Y-105061272D01*
X118132205Y-105061272D02*
X118227443Y-105108891D01*
X118227443Y-105108891D02*
X118608395Y-105108891D01*
X117608395Y-105489843D02*
X117560776Y-105537462D01*
X117560776Y-105537462D02*
X117608395Y-105585081D01*
X117608395Y-105585081D02*
X117656014Y-105537462D01*
X117656014Y-105537462D02*
X117608395Y-105489843D01*
X117608395Y-105489843D02*
X117608395Y-105585081D01*
X117608395Y-104966034D02*
X117560776Y-105013653D01*
X117560776Y-105013653D02*
X117608395Y-105061272D01*
X117608395Y-105061272D02*
X117656014Y-105013653D01*
X117656014Y-105013653D02*
X117608395Y-104966034D01*
X117608395Y-104966034D02*
X117608395Y-105061272D01*
X119608395Y-107205081D02*
X120084585Y-107205081D01*
X120084585Y-107205081D02*
X120084585Y-106205081D01*
X119275061Y-106681272D02*
X118941728Y-106681272D01*
X118798871Y-107205081D02*
X119275061Y-107205081D01*
X119275061Y-107205081D02*
X119275061Y-106205081D01*
X119275061Y-106205081D02*
X118798871Y-106205081D01*
X118370299Y-107205081D02*
X118370299Y-106205081D01*
X118370299Y-106205081D02*
X118132204Y-106205081D01*
X118132204Y-106205081D02*
X117989347Y-106252701D01*
X117989347Y-106252701D02*
X117894109Y-106347939D01*
X117894109Y-106347939D02*
X117846490Y-106443177D01*
X117846490Y-106443177D02*
X117798871Y-106633653D01*
X117798871Y-106633653D02*
X117798871Y-106776510D01*
X117798871Y-106776510D02*
X117846490Y-106966986D01*
X117846490Y-106966986D02*
X117894109Y-107062224D01*
X117894109Y-107062224D02*
X117989347Y-107157462D01*
X117989347Y-107157462D02*
X118132204Y-107205081D01*
X118132204Y-107205081D02*
X118370299Y-107205081D01*
X117370299Y-107109843D02*
X117322680Y-107157462D01*
X117322680Y-107157462D02*
X117370299Y-107205081D01*
X117370299Y-107205081D02*
X117417918Y-107157462D01*
X117417918Y-107157462D02*
X117370299Y-107109843D01*
X117370299Y-107109843D02*
X117370299Y-107205081D01*
X117370299Y-106586034D02*
X117322680Y-106633653D01*
X117322680Y-106633653D02*
X117370299Y-106681272D01*
X117370299Y-106681272D02*
X117417918Y-106633653D01*
X117417918Y-106633653D02*
X117370299Y-106586034D01*
X117370299Y-106586034D02*
X117370299Y-106681272D01*
X115770300Y-106252701D02*
X115865538Y-106205081D01*
X115865538Y-106205081D02*
X116008395Y-106205081D01*
X116008395Y-106205081D02*
X116151252Y-106252701D01*
X116151252Y-106252701D02*
X116246490Y-106347939D01*
X116246490Y-106347939D02*
X116294109Y-106443177D01*
X116294109Y-106443177D02*
X116341728Y-106633653D01*
X116341728Y-106633653D02*
X116341728Y-106776510D01*
X116341728Y-106776510D02*
X116294109Y-106966986D01*
X116294109Y-106966986D02*
X116246490Y-107062224D01*
X116246490Y-107062224D02*
X116151252Y-107157462D01*
X116151252Y-107157462D02*
X116008395Y-107205081D01*
X116008395Y-107205081D02*
X115913157Y-107205081D01*
X115913157Y-107205081D02*
X115770300Y-107157462D01*
X115770300Y-107157462D02*
X115722681Y-107109843D01*
X115722681Y-107109843D02*
X115722681Y-106776510D01*
X115722681Y-106776510D02*
X115913157Y-106776510D01*
X115294109Y-107205081D02*
X115294109Y-106205081D01*
X115294109Y-106205081D02*
X114913157Y-106205081D01*
X114913157Y-106205081D02*
X114817919Y-106252701D01*
X114817919Y-106252701D02*
X114770300Y-106300320D01*
X114770300Y-106300320D02*
X114722681Y-106395558D01*
X114722681Y-106395558D02*
X114722681Y-106538415D01*
X114722681Y-106538415D02*
X114770300Y-106633653D01*
X114770300Y-106633653D02*
X114817919Y-106681272D01*
X114817919Y-106681272D02*
X114913157Y-106728891D01*
X114913157Y-106728891D02*
X115294109Y-106728891D01*
X114294109Y-107205081D02*
X114294109Y-106205081D01*
X113627443Y-106205081D02*
X113436967Y-106205081D01*
X113436967Y-106205081D02*
X113341729Y-106252701D01*
X113341729Y-106252701D02*
X113246491Y-106347939D01*
X113246491Y-106347939D02*
X113198872Y-106538415D01*
X113198872Y-106538415D02*
X113198872Y-106871748D01*
X113198872Y-106871748D02*
X113246491Y-107062224D01*
X113246491Y-107062224D02*
X113341729Y-107157462D01*
X113341729Y-107157462D02*
X113436967Y-107205081D01*
X113436967Y-107205081D02*
X113627443Y-107205081D01*
X113627443Y-107205081D02*
X113722681Y-107157462D01*
X113722681Y-107157462D02*
X113817919Y-107062224D01*
X113817919Y-107062224D02*
X113865538Y-106871748D01*
X113865538Y-106871748D02*
X113865538Y-106538415D01*
X113865538Y-106538415D02*
X113817919Y-106347939D01*
X113817919Y-106347939D02*
X113722681Y-106252701D01*
X113722681Y-106252701D02*
X113627443Y-106205081D01*
X112817919Y-106300320D02*
X112770300Y-106252701D01*
X112770300Y-106252701D02*
X112675062Y-106205081D01*
X112675062Y-106205081D02*
X112436967Y-106205081D01*
X112436967Y-106205081D02*
X112341729Y-106252701D01*
X112341729Y-106252701D02*
X112294110Y-106300320D01*
X112294110Y-106300320D02*
X112246491Y-106395558D01*
X112246491Y-106395558D02*
X112246491Y-106490796D01*
X112246491Y-106490796D02*
X112294110Y-106633653D01*
X112294110Y-106633653D02*
X112865538Y-107205081D01*
X112865538Y-107205081D02*
X112246491Y-107205081D01*
X111865538Y-106300320D02*
X111817919Y-106252701D01*
X111817919Y-106252701D02*
X111722681Y-106205081D01*
X111722681Y-106205081D02*
X111484586Y-106205081D01*
X111484586Y-106205081D02*
X111389348Y-106252701D01*
X111389348Y-106252701D02*
X111341729Y-106300320D01*
X111341729Y-106300320D02*
X111294110Y-106395558D01*
X111294110Y-106395558D02*
X111294110Y-106490796D01*
X111294110Y-106490796D02*
X111341729Y-106633653D01*
X111341729Y-106633653D02*
X111913157Y-107205081D01*
X111913157Y-107205081D02*
X111294110Y-107205081D01*
X120132204Y-108539367D02*
X119656014Y-108539367D01*
X120227442Y-108825081D02*
X119894109Y-107825081D01*
X119894109Y-107825081D02*
X119560776Y-108825081D01*
X118751252Y-108825081D02*
X119227442Y-108825081D01*
X119227442Y-108825081D02*
X119227442Y-107825081D01*
X118465537Y-108539367D02*
X117989347Y-108539367D01*
X118560775Y-108825081D02*
X118227442Y-107825081D01*
X118227442Y-107825081D02*
X117894109Y-108825081D01*
X116989347Y-108825081D02*
X117322680Y-108348891D01*
X117560775Y-108825081D02*
X117560775Y-107825081D01*
X117560775Y-107825081D02*
X117179823Y-107825081D01*
X117179823Y-107825081D02*
X117084585Y-107872701D01*
X117084585Y-107872701D02*
X117036966Y-107920320D01*
X117036966Y-107920320D02*
X116989347Y-108015558D01*
X116989347Y-108015558D02*
X116989347Y-108158415D01*
X116989347Y-108158415D02*
X117036966Y-108253653D01*
X117036966Y-108253653D02*
X117084585Y-108301272D01*
X117084585Y-108301272D02*
X117179823Y-108348891D01*
X117179823Y-108348891D02*
X117560775Y-108348891D01*
X116560775Y-108825081D02*
X116560775Y-107825081D01*
X116560775Y-107825081D02*
X116227442Y-108539367D01*
X116227442Y-108539367D02*
X115894109Y-107825081D01*
X115894109Y-107825081D02*
X115894109Y-108825081D01*
X115417918Y-108729843D02*
X115370299Y-108777462D01*
X115370299Y-108777462D02*
X115417918Y-108825081D01*
X115417918Y-108825081D02*
X115465537Y-108777462D01*
X115465537Y-108777462D02*
X115417918Y-108729843D01*
X115417918Y-108729843D02*
X115417918Y-108825081D01*
X115417918Y-108206034D02*
X115370299Y-108253653D01*
X115370299Y-108253653D02*
X115417918Y-108301272D01*
X115417918Y-108301272D02*
X115465537Y-108253653D01*
X115465537Y-108253653D02*
X115417918Y-108206034D01*
X115417918Y-108206034D02*
X115417918Y-108301272D01*
X113817919Y-107872701D02*
X113913157Y-107825081D01*
X113913157Y-107825081D02*
X114056014Y-107825081D01*
X114056014Y-107825081D02*
X114198871Y-107872701D01*
X114198871Y-107872701D02*
X114294109Y-107967939D01*
X114294109Y-107967939D02*
X114341728Y-108063177D01*
X114341728Y-108063177D02*
X114389347Y-108253653D01*
X114389347Y-108253653D02*
X114389347Y-108396510D01*
X114389347Y-108396510D02*
X114341728Y-108586986D01*
X114341728Y-108586986D02*
X114294109Y-108682224D01*
X114294109Y-108682224D02*
X114198871Y-108777462D01*
X114198871Y-108777462D02*
X114056014Y-108825081D01*
X114056014Y-108825081D02*
X113960776Y-108825081D01*
X113960776Y-108825081D02*
X113817919Y-108777462D01*
X113817919Y-108777462D02*
X113770300Y-108729843D01*
X113770300Y-108729843D02*
X113770300Y-108396510D01*
X113770300Y-108396510D02*
X113960776Y-108396510D01*
X113341728Y-108825081D02*
X113341728Y-107825081D01*
X113341728Y-107825081D02*
X112960776Y-107825081D01*
X112960776Y-107825081D02*
X112865538Y-107872701D01*
X112865538Y-107872701D02*
X112817919Y-107920320D01*
X112817919Y-107920320D02*
X112770300Y-108015558D01*
X112770300Y-108015558D02*
X112770300Y-108158415D01*
X112770300Y-108158415D02*
X112817919Y-108253653D01*
X112817919Y-108253653D02*
X112865538Y-108301272D01*
X112865538Y-108301272D02*
X112960776Y-108348891D01*
X112960776Y-108348891D02*
X113341728Y-108348891D01*
X112341728Y-108825081D02*
X112341728Y-107825081D01*
X111675062Y-107825081D02*
X111484586Y-107825081D01*
X111484586Y-107825081D02*
X111389348Y-107872701D01*
X111389348Y-107872701D02*
X111294110Y-107967939D01*
X111294110Y-107967939D02*
X111246491Y-108158415D01*
X111246491Y-108158415D02*
X111246491Y-108491748D01*
X111246491Y-108491748D02*
X111294110Y-108682224D01*
X111294110Y-108682224D02*
X111389348Y-108777462D01*
X111389348Y-108777462D02*
X111484586Y-108825081D01*
X111484586Y-108825081D02*
X111675062Y-108825081D01*
X111675062Y-108825081D02*
X111770300Y-108777462D01*
X111770300Y-108777462D02*
X111865538Y-108682224D01*
X111865538Y-108682224D02*
X111913157Y-108491748D01*
X111913157Y-108491748D02*
X111913157Y-108158415D01*
X111913157Y-108158415D02*
X111865538Y-107967939D01*
X111865538Y-107967939D02*
X111770300Y-107872701D01*
X111770300Y-107872701D02*
X111675062Y-107825081D01*
X110865538Y-107920320D02*
X110817919Y-107872701D01*
X110817919Y-107872701D02*
X110722681Y-107825081D01*
X110722681Y-107825081D02*
X110484586Y-107825081D01*
X110484586Y-107825081D02*
X110389348Y-107872701D01*
X110389348Y-107872701D02*
X110341729Y-107920320D01*
X110341729Y-107920320D02*
X110294110Y-108015558D01*
X110294110Y-108015558D02*
X110294110Y-108110796D01*
X110294110Y-108110796D02*
X110341729Y-108253653D01*
X110341729Y-108253653D02*
X110913157Y-108825081D01*
X110913157Y-108825081D02*
X110294110Y-108825081D01*
X109436967Y-107825081D02*
X109627443Y-107825081D01*
X109627443Y-107825081D02*
X109722681Y-107872701D01*
X109722681Y-107872701D02*
X109770300Y-107920320D01*
X109770300Y-107920320D02*
X109865538Y-108063177D01*
X109865538Y-108063177D02*
X109913157Y-108253653D01*
X109913157Y-108253653D02*
X109913157Y-108634605D01*
X109913157Y-108634605D02*
X109865538Y-108729843D01*
X109865538Y-108729843D02*
X109817919Y-108777462D01*
X109817919Y-108777462D02*
X109722681Y-108825081D01*
X109722681Y-108825081D02*
X109532205Y-108825081D01*
X109532205Y-108825081D02*
X109436967Y-108777462D01*
X109436967Y-108777462D02*
X109389348Y-108729843D01*
X109389348Y-108729843D02*
X109341729Y-108634605D01*
X109341729Y-108634605D02*
X109341729Y-108396510D01*
X109341729Y-108396510D02*
X109389348Y-108301272D01*
X109389348Y-108301272D02*
X109436967Y-108253653D01*
X109436967Y-108253653D02*
X109532205Y-108206034D01*
X109532205Y-108206034D02*
X109722681Y-108206034D01*
X109722681Y-108206034D02*
X109817919Y-108253653D01*
X109817919Y-108253653D02*
X109865538Y-108301272D01*
X109865538Y-108301272D02*
X109913157Y-108396510D01*
D11*
X137419181Y-132055222D02*
X137419181Y-132769508D01*
X137419181Y-132769508D02*
X137466800Y-132912365D01*
X137466800Y-132912365D02*
X137562038Y-133007603D01*
X137562038Y-133007603D02*
X137704895Y-133055222D01*
X137704895Y-133055222D02*
X137800133Y-133055222D01*
X136466800Y-133055222D02*
X136942990Y-133055222D01*
X136942990Y-133055222D02*
X136942990Y-132055222D01*
X135562038Y-132959984D02*
X135609657Y-133007603D01*
X135609657Y-133007603D02*
X135752514Y-133055222D01*
X135752514Y-133055222D02*
X135847752Y-133055222D01*
X135847752Y-133055222D02*
X135990609Y-133007603D01*
X135990609Y-133007603D02*
X136085847Y-132912365D01*
X136085847Y-132912365D02*
X136133466Y-132817127D01*
X136133466Y-132817127D02*
X136181085Y-132626651D01*
X136181085Y-132626651D02*
X136181085Y-132483794D01*
X136181085Y-132483794D02*
X136133466Y-132293318D01*
X136133466Y-132293318D02*
X136085847Y-132198080D01*
X136085847Y-132198080D02*
X135990609Y-132102842D01*
X135990609Y-132102842D02*
X135847752Y-132055222D01*
X135847752Y-132055222D02*
X135752514Y-132055222D01*
X135752514Y-132055222D02*
X135609657Y-132102842D01*
X135609657Y-132102842D02*
X135562038Y-132150461D01*
X134847752Y-132055222D02*
X134847752Y-132769508D01*
X134847752Y-132769508D02*
X134895371Y-132912365D01*
X134895371Y-132912365D02*
X134990609Y-133007603D01*
X134990609Y-133007603D02*
X135133466Y-133055222D01*
X135133466Y-133055222D02*
X135228704Y-133055222D01*
X133895371Y-133055222D02*
X134371561Y-133055222D01*
X134371561Y-133055222D02*
X134371561Y-132055222D01*
X132990609Y-132959984D02*
X133038228Y-133007603D01*
X133038228Y-133007603D02*
X133181085Y-133055222D01*
X133181085Y-133055222D02*
X133276323Y-133055222D01*
X133276323Y-133055222D02*
X133419180Y-133007603D01*
X133419180Y-133007603D02*
X133514418Y-132912365D01*
X133514418Y-132912365D02*
X133562037Y-132817127D01*
X133562037Y-132817127D02*
X133609656Y-132626651D01*
X133609656Y-132626651D02*
X133609656Y-132483794D01*
X133609656Y-132483794D02*
X133562037Y-132293318D01*
X133562037Y-132293318D02*
X133514418Y-132198080D01*
X133514418Y-132198080D02*
X133419180Y-132102842D01*
X133419180Y-132102842D02*
X133276323Y-132055222D01*
X133276323Y-132055222D02*
X133181085Y-132055222D01*
X133181085Y-132055222D02*
X133038228Y-132102842D01*
X133038228Y-132102842D02*
X132990609Y-132150461D01*
X132276323Y-132055222D02*
X132276323Y-132769508D01*
X132276323Y-132769508D02*
X132323942Y-132912365D01*
X132323942Y-132912365D02*
X132419180Y-133007603D01*
X132419180Y-133007603D02*
X132562037Y-133055222D01*
X132562037Y-133055222D02*
X132657275Y-133055222D01*
X131323942Y-133055222D02*
X131800132Y-133055222D01*
X131800132Y-133055222D02*
X131800132Y-132055222D01*
X130419180Y-132959984D02*
X130466799Y-133007603D01*
X130466799Y-133007603D02*
X130609656Y-133055222D01*
X130609656Y-133055222D02*
X130704894Y-133055222D01*
X130704894Y-133055222D02*
X130847751Y-133007603D01*
X130847751Y-133007603D02*
X130942989Y-132912365D01*
X130942989Y-132912365D02*
X130990608Y-132817127D01*
X130990608Y-132817127D02*
X131038227Y-132626651D01*
X131038227Y-132626651D02*
X131038227Y-132483794D01*
X131038227Y-132483794D02*
X130990608Y-132293318D01*
X130990608Y-132293318D02*
X130942989Y-132198080D01*
X130942989Y-132198080D02*
X130847751Y-132102842D01*
X130847751Y-132102842D02*
X130704894Y-132055222D01*
X130704894Y-132055222D02*
X130609656Y-132055222D01*
X130609656Y-132055222D02*
X130466799Y-132102842D01*
X130466799Y-132102842D02*
X130419180Y-132150461D01*
X129704894Y-132055222D02*
X129704894Y-132769508D01*
X129704894Y-132769508D02*
X129752513Y-132912365D01*
X129752513Y-132912365D02*
X129847751Y-133007603D01*
X129847751Y-133007603D02*
X129990608Y-133055222D01*
X129990608Y-133055222D02*
X130085846Y-133055222D01*
X128752513Y-133055222D02*
X129228703Y-133055222D01*
X129228703Y-133055222D02*
X129228703Y-132055222D01*
X127847751Y-132959984D02*
X127895370Y-133007603D01*
X127895370Y-133007603D02*
X128038227Y-133055222D01*
X128038227Y-133055222D02*
X128133465Y-133055222D01*
X128133465Y-133055222D02*
X128276322Y-133007603D01*
X128276322Y-133007603D02*
X128371560Y-132912365D01*
X128371560Y-132912365D02*
X128419179Y-132817127D01*
X128419179Y-132817127D02*
X128466798Y-132626651D01*
X128466798Y-132626651D02*
X128466798Y-132483794D01*
X128466798Y-132483794D02*
X128419179Y-132293318D01*
X128419179Y-132293318D02*
X128371560Y-132198080D01*
X128371560Y-132198080D02*
X128276322Y-132102842D01*
X128276322Y-132102842D02*
X128133465Y-132055222D01*
X128133465Y-132055222D02*
X128038227Y-132055222D01*
X128038227Y-132055222D02*
X127895370Y-132102842D01*
X127895370Y-132102842D02*
X127847751Y-132150461D01*
M02*
